<svg xmlns="http://www.w3.org/2000/svg" version="1.1" xmlns:xlink="http://www.w3.org/1999/xlink" xmlns:svgjs="http://svgjs.dev/svgjs" width="1500" height="1500" viewBox="0 0 1500 1500"><rect width="1500" height="1500" fill="#ffffff"></rect><g transform="matrix(0.6666666666666666,0,0,0.6666666666666666,249.39393939393938,438.58569500674764)"><svg viewBox="0 0 396 247" data-background-color="#ffffff" preserveAspectRatio="xMidYMid meet" height="935" width="1500" xmlns="http://www.w3.org/2000/svg" xmlns:xlink="http://www.w3.org/1999/xlink"><g id="tight-bounds" transform="matrix(1,0,0,1,0.2400000000000091,-0.09999999999999432)"><svg viewBox="0 0 395.52 247.2" height="247.2" width="395.52"><g><svg></svg></g><g><svg viewBox="0 0 395.52 247.2" height="247.2" width="395.52"><g transform="matrix(1,0,0,1,75.54432,54.46064340222814)"><svg viewBox="0 0 244.43135999999998 138.2787131955437" height="138.2787131955437" width="244.43135999999998"><g><svg viewBox="0 0 244.43135999999998 138.2787131955437" height="138.2787131955437" width="244.43135999999998"><g transform="matrix(1,0,0,1,0,83.66075683689743)"><svg viewBox="0 0 244.43135999999998 54.61795635864627" height="54.61795635864627" width="244.43135999999998"><g id="textblocktransform"><svg viewBox="0 0 244.43135999999998 54.61795635864627" height="54.61795635864627" width="244.43135999999998" id="textblock"><g><svg viewBox="0 0 244.43135999999998 34.64452612399519" height="34.64452612399519" width="244.43135999999998"><g transform="matrix(1,0,0,1,0,0)"><svg width="244.43135999999998" viewBox="0.81 -36.84 264.2 37.45" height="34.64452612399519" data-palette-color="#2257bf"><path d="M29.15-33.54L29.15-25.56 26.2-25.56 25.49-30.25Q25.32-31.1 24.66-31.1L24.66-31.1 17.5-31.1 17.5-3.44Q17.5-3.08 17.76-2.73 18.02-2.39 18.55-2.34L18.55-2.34 21.75-2.15 21.75 0 8.2 0 8.2-2.15 11.4-2.34Q11.94-2.39 12.19-2.73 12.45-3.08 12.45-3.44L12.45-3.44 12.45-31.1 5.25-31.1Q4.52-31.1 4.39-30.25L4.39-30.25 3.71-25.56 0.81-25.56 0.81-33.54 29.15-33.54ZM57.49-1.95L57.49 0 46.36 0 46.36-1.95 48.41-2.1Q48.85-2.15 49.18-2.44 49.51-2.73 49.51-3.2L49.51-3.2 49.51-16.09Q49.51-18.24 48.48-19.64 47.46-21.04 44.55-21.04L44.55-21.04Q43.23-21.04 41.71-20.63 40.18-20.21 39.11-19.6L39.11-19.6 39.11-3.2Q39.11-2.17 40.11-2.1L40.11-2.1 42.26-1.95 42.26 0 31 0 31-1.95 33.4-2.1Q34.45-2.17 34.45-3.2L34.45-3.2 34.45-33.25 30.71-33.25 30.71-34.91 37.11-36.84 39.11-36.84 39.11-21.61Q40.01-22.17 41.45-22.89 42.89-23.61 44.48-24.16 46.07-24.71 47.36-24.71L47.36-24.71Q50.24-24.71 52.19-22.85 54.15-21 54.15-17.14L54.15-17.14 54.15-3.2Q54.15-2.73 54.48-2.44 54.81-2.15 55.25-2.1L55.25-2.1 57.49-1.95ZM77.7-23.95L77.7-18.99 75.75-18.99Q75.29-19.56 74.64-19.96 73.99-20.36 73.07-20.36L73.07-20.36Q71.87-20.36 70.61-19.53 69.36-18.7 68.06-17.26L68.06-17.26 68.06-3.2Q68.06-2.15 69.11-2.1L69.11-2.1 72.41-1.95 72.41 0 59.91 0 59.91-1.9 62.37-2.1Q62.81-2.15 63.12-2.44 63.42-2.73 63.42-3.2L63.42-3.2 63.42-20.56 59.81-20.56 59.81-22.19 66.01-24.1 68.06-24.1 68.06-19.65Q68.79-20.46 69.89-21.66 70.99-22.85 72.24-23.78 73.48-24.71 74.65-24.71L74.65-24.71Q75.43-24.71 76.34-24.46 77.24-24.22 77.7-23.95L77.7-23.95ZM89.1-32.35L89.1-32.35Q89.1-31.08 88.22-30.16 87.35-29.25 86.08-29.25L86.08-29.25Q84.81-29.25 83.89-30.16 82.98-31.08 82.98-32.35L82.98-32.35Q82.98-33.64 83.89-34.52 84.81-35.4 86.08-35.4L86.08-35.4Q87.35-35.4 88.22-34.52 89.1-33.64 89.1-32.35ZM91.67-1.95L91.67 0 79.92 0 79.92-1.95 82.37-2.1Q83.42-2.17 83.42-3.2L83.42-3.2 83.42-21.04 79.97-21.04 79.97-22.8 86.08-24.71 88.05-24.71 88.05-3.2Q88.05-2.73 88.36-2.44 88.66-2.15 89.1-2.1L89.1-2.1 91.67-1.95ZM119.33-24.1L119.33-22.14 116.66-21.85 107.92 0 104.68 0 96.62-21.85 93.86-22.14 93.86-24.1 104.92-24.1 104.92-22.14 102.53-22Q101.72-21.92 101.72-21.19L101.72-21.19Q101.72-21.09 101.77-20.9L101.77-20.9 107.36-5.25 113.52-20.9Q113.59-21.04 113.59-21.22L113.59-21.22Q113.59-21.95 112.83-22L112.83-22 110.59-22.14 110.59-24.1 119.33-24.1ZM142.61-5.54L142.61-2.49Q140.51-1.2 138.09-0.29 135.66 0.61 133.12 0.61L133.12 0.61Q130.09 0.61 127.44-0.74 124.79-2.1 123.16-4.86 121.52-7.62 121.52-11.79L121.52-11.79Q121.52-15.7 123.03-18.6 124.55-21.51 127.21-23.11 129.87-24.71 133.26-24.71L133.26-24.71Q137.93-24.71 140.27-21.81 142.61-18.92 142.61-14.45L142.61-14.45Q142.61-14.21 142.61-13.81 142.61-13.4 142.57-13.06L142.57-13.06 126.35-13.06Q126.35-11.16 126.76-9.27 127.16-7.37 128.11-5.83 129.06-4.3 130.68-3.37 132.29-2.44 134.7-2.44L134.7-2.44Q136.85-2.44 138.89-3.43 140.93-4.42 142.61-5.54L142.61-5.54ZM126.62-15.31L137.61-15.31 137.61-16.41Q137.61-18.87 136.43-20.56 135.24-22.24 132.75-22.24L132.75-22.24Q130.29-22.24 128.55-20.39 126.82-18.53 126.62-15.31L126.62-15.31ZM192.39-33.54L192.39-25.61 189.44-25.61 188.73-30.2Q188.65-30.57 188.43-30.83 188.21-31.1 187.87-31.1L187.87-31.1 177.23-31.1 177.23-18.09 184.87-18.09Q185.21-18.09 185.48-18.42 185.75-18.75 185.77-18.99L185.77-18.99 186.24-22.51 188.73-22.51 188.73-11.25 186.24-11.25 185.77-14.75Q185.75-15.01 185.47-15.33 185.19-15.65 184.87-15.65L184.87-15.65 177.23-15.65 177.23-3.44Q177.23-3.08 177.48-2.73 177.74-2.39 178.28-2.34L178.28-2.34 181.62-2.15 181.62 0 168.49 0 168.49-2.15 171.13-2.34Q171.66-2.39 171.92-2.73 172.17-3.08 172.17-3.44L172.17-3.44 172.17-30.1Q172.17-30.47 171.92-30.82 171.66-31.18 171.13-31.2L171.13-31.2 168.07-31.4 168.07-33.54 192.39-33.54ZM221.27-1.95L221.27 0 213.33 0 213.33-2.86Q212.48-2.2 211.16-1.39 209.84-0.59 208.33 0.01 206.82 0.61 205.33 0.61L205.33 0.61Q202.1 0.61 200.26-1.33 198.42-3.27 198.42-7.5L198.42-7.5 198.42-21.04 194.93-21.04 194.93-22.75 201.08-24.71 203.08-24.71 203.08-8.45Q203.08-5.79 204.17-4.3 205.25-2.81 207.91-2.81L207.91-2.81Q209.45-2.81 210.94-3.33 212.43-3.86 213.33-4.3L213.33-4.3 213.33-21.04 209.82-21.04 209.82-22.75 215.92-24.71 217.97-24.71 217.97-3.2Q217.97-2.73 218.3-2.44 218.63-2.15 219.07-2.1L219.07-2.1 221.27-1.95ZM240.5-7.25L240.5-7.25Q240.5-3.56 237.97-1.48 235.43 0.61 230.96 0.61L230.96 0.61Q228.66 0.61 226.72 0.13 224.78-0.34 224.03-0.66L224.03-0.66 224.03-7.3 226.56-7.3 227.17-3.05Q227.93-2.56 229.04-2.11 230.15-1.66 231.62-1.66L231.62-1.66Q233.77-1.66 234.94-2.86 236.11-4.05 236.11-5.54L236.11-5.54Q236.11-7.52 234.69-8.53 233.28-9.55 230.67-10.79L230.67-10.79 230.01-11.11Q227.27-12.4 225.82-13.81 224.37-15.21 224.37-17.46L224.37-17.46Q224.37-20.8 226.71-22.75 229.05-24.71 233.38-24.71L233.38-24.71Q235.57-24.71 237.29-24.3 239.02-23.9 239.77-23.56L239.77-23.56 239.77-17.65 237.16-17.65 236.77-21.14Q236.23-21.56 235.18-21.92 234.13-22.29 232.96-22.29L232.96-22.29Q230.91-22.29 229.91-21.35 228.91-20.41 228.91-18.95L228.91-18.95Q228.91-17.26 230.12-16.27 231.33-15.28 234.5-13.84L234.5-13.84Q237.11-12.65 238.81-11.17 240.5-9.69 240.5-7.25ZM265.01-5.54L265.01-2.49Q262.91-1.2 260.49-0.29 258.06 0.61 255.52 0.61L255.52 0.61Q252.49 0.61 249.84-0.74 247.19-2.1 245.56-4.86 243.92-7.62 243.92-11.79L243.92-11.79Q243.92-15.7 245.43-18.6 246.95-21.51 249.61-23.11 252.27-24.71 255.66-24.71L255.66-24.71Q260.33-24.71 262.67-21.81 265.01-18.92 265.01-14.45L265.01-14.45Q265.01-14.21 265.01-13.81 265.01-13.4 264.97-13.06L264.97-13.06 248.75-13.06Q248.75-11.16 249.16-9.27 249.56-7.37 250.51-5.83 251.46-4.3 253.08-3.37 254.69-2.44 257.1-2.44L257.1-2.44Q259.25-2.44 261.29-3.43 263.33-4.42 265.01-5.54L265.01-5.54ZM249.02-15.31L260.01-15.31 260.01-16.41Q260.01-18.87 258.83-20.56 257.64-22.24 255.15-22.24L255.15-22.24Q252.68-22.24 250.95-20.39 249.22-18.53 249.02-15.31L249.02-15.31Z" opacity="1" transform="matrix(1,0,0,1,0,0)" fill="#2257bf" class="wordmark-text-0" data-fill-palette-color="primary" id="text-0"></path></svg></g></svg></g><g transform="matrix(1,0,0,1,0,42.82326727324348)"><svg viewBox="0 0 244.43135999999998 11.794689085402783" height="11.794689085402783" width="244.43135999999998"><g transform="matrix(1,0,0,1,0,0)"><svg width="244.43135999999998" viewBox="2.15 -34 990.48 47.800000000000004" height="11.794689085402783" data-palette-color="#2257bf"><path d="M12.2 0.65L12.2 0.65Q7.45 0.65 5.18-0.88 2.9-2.4 2.9-6.6L2.9-6.6Q2.9-7.45 3.03-8.65 3.15-9.85 3.4-11.55L3.4-11.55Q3.8-14 4-15.93 4.2-17.85 4.2-20.15L4.2-20.15Q4.2-21.65 4.13-23.05 4.05-24.45 3.85-25.7L3.85-25.7Q3.1-25.55 2.85-25.55L2.85-25.55Q2.45-25.55 2.3-25.73 2.15-25.9 2.15-26.4L2.15-26.4Q2.15-27.45 2.4-28.48 2.65-29.5 3.1-30.15L3.1-30.15Q3.95-31.35 5.7-31.55L5.7-31.55Q7.05-31.7 9.03-31.85 11-32 13.08-32.08 15.15-32.15 16.8-32.15L16.8-32.15Q21.4-32.15 22.25-31.95L22.25-31.95Q23.55-31.75 23.55-30.55L23.55-30.55Q23.55-29.05 22.5-27.8L22.5-27.8Q21.95-27.05 21.4-26.73 20.85-26.4 19.85-26.45L19.85-26.45Q17.65-26.6 16-26.65 14.35-26.7 13.7-26.7L13.7-26.7Q12.55-26.7 11.33-26.65 10.1-26.6 8.85-26.5L8.85-26.5Q8.85-24.75 8.7-22.75 8.55-20.75 8.3-18.55L8.3-18.55Q10.6-18.7 13.5-18.78 16.4-18.85 18.65-18.85L18.65-18.85Q19.65-18.85 20.03-18.65 20.4-18.45 20.4-17.6L20.4-17.6Q20.4-16.8 19.98-15.83 19.55-14.85 18.85-14.15L18.85-14.15Q18.55-13.85 18.2-13.68 17.85-13.5 17.25-13.55L17.25-13.55Q15.1-13.65 12.38-13.7 9.65-13.75 7.6-13.7L7.6-13.7Q7.4-12.55 7.3-11.6 7.2-10.65 7.2-9.9L7.2-9.9Q7.2-7.15 8.6-6.05 10-4.95 13.2-4.95L13.2-4.95Q15.15-4.95 16.98-5.3 18.8-5.65 20.7-6.6L20.7-6.6Q21.4-7 21.75-7L21.75-7Q22.3-7 22.83-6.23 23.35-5.45 23.35-4.55L23.35-4.55Q23.35-3.45 22.53-2.48 21.7-1.5 20.35-0.8L20.35-0.8Q18.8-0.1 16.65 0.28 14.5 0.65 12.2 0.65ZM29.45 0.55L29.45 0.55Q27.65 0.55 27.85-0.65L27.85-0.65Q28.4-2.8 28.77-5.03 29.15-7.25 29.15-9.3L29.15-9.3Q29.15-11.95 28.82-13.18 28.5-14.4 27.95-14.88 27.4-15.35 26.6-15.6L26.6-15.6Q26.25-15.75 25.97-16 25.7-16.25 25.7-16.7L25.7-16.7Q25.7-17.4 26.25-18.25 26.8-19.1 27.82-19.73 28.85-20.35 30.15-20.35L30.15-20.35Q31.85-20.35 32.5-19.18 33.15-18 33.15-16.1L33.15-16.1Q33.15-14.85 32.9-13.3 32.65-11.75 32.4-10.5L32.4-10.5 32.5-10.45Q33.3-13.1 34.47-15.35 35.65-17.6 37.32-19 39-20.4 41.2-20.4L41.2-20.4Q43.45-20.4 44.75-18.88 46.05-17.35 46.05-14.4L46.05-14.4 46.05-13.3Q47.5-16.35 49.57-18.4 51.65-20.45 54.6-20.45L54.6-20.45Q57-20.45 58.35-18.85 59.7-17.25 59.7-14.85L59.7-14.85Q59.7-13.9 59.5-13.03 59.3-12.15 59.05-11.3L59.05-11.3Q58.85-10.5 58.65-9.65 58.45-8.8 58.45-7.95L58.45-7.95Q58.45-4.95 61-4.05L61-4.05Q61.35-3.9 61.55-3.73 61.75-3.55 61.75-3.1L61.75-3.1Q61.75-2.65 61.47-1.8 61.2-0.95 60.4-0.23 59.6 0.5 58.1 0.5L58.1 0.5Q56.15 0.5 55.1-0.93 54.05-2.35 54.05-4.55L54.05-4.55Q54.05-5.65 54.25-6.85 54.45-8.05 54.75-9.15L54.75-9.15Q55-10.15 55.17-11.05 55.35-11.95 55.35-12.6L55.35-12.6Q55.35-13.8 54.77-14.35 54.2-14.9 53.25-14.9L53.25-14.9Q51.65-14.9 50.37-13.9 49.1-12.9 48.12-11.3 47.15-9.7 46.45-7.8L46.45-7.8Q46.5-7.35 46.52-6.63 46.55-5.9 46.55-5.35L46.55-5.35Q46.55-4.4 46.42-3.35 46.3-2.3 45.95-1.6L45.95-1.6Q45.55-0.65 44.77-0.05 44 0.55 42.7 0.55L42.7 0.55Q42.15 0.55 41.65 0.33 41.15 0.1 41.15-0.4L41.15-0.4Q41.15-0.6 41.45-2.18 41.75-3.75 42.05-6.05 42.35-8.35 42.35-10.55L42.35-10.55Q42.35-12.95 41.85-13.88 41.35-14.8 40.35-14.8L40.35-14.8Q39.1-14.8 37.97-13.75 36.85-12.7 35.92-11.05 35-9.4 34.32-7.6 33.65-5.8 33.25-4.25L33.25-4.25 33.25-3.7Q33.25-1.85 32.22-0.65 31.2 0.55 29.45 0.55ZM68.09 13.8L68.09 13.8Q66.59 13.8 65.75 12.98 64.89 12.15 64.89 10L64.89 10Q64.89 8.55 65.22 6.35 65.55 4.15 66 1.7L66 1.7Q66.34-0.25 66.67-2.4 67-4.55 67.22-6.63 67.45-8.7 67.45-10.35L67.45-10.35Q67.45-12.25 67.02-13.65 66.59-15.05 65.3-15.45L65.3-15.45Q64.8-15.65 64.39-15.9 64-16.15 64-16.7L64-16.7Q64-17.4 64.55-18.25 65.09-19.1 66.12-19.73 67.14-20.35 68.45-20.35L68.45-20.35Q70.14-20.35 70.8-19.18 71.45-18 71.45-16.1L71.45-16.1Q71.45-15.55 71.39-14.98 71.34-14.4 71.25-13.8L71.25-13.8Q72.7-16.6 75.07-18.53 77.45-20.45 80.45-20.45L80.45-20.45Q83.45-20.45 85.17-18.43 86.9-16.4 86.9-12.95L86.9-12.95Q86.9-10.4 86.09-7.98 85.3-5.55 83.84-3.6 82.4-1.65 80.37-0.5 78.34 0.65 75.84 0.65L75.84 0.65Q74.05 0.65 72.7 0.03 71.34-0.6 70.34-1.6L70.34-1.6Q70.14-0.3 69.97 1.55 69.8 3.4 69.8 5L69.8 5Q69.8 6.85 70.22 7.9 70.64 8.95 71.89 9.5L71.89 9.5Q72.45 9.75 72.45 10.3L72.45 10.3Q72.45 10.7 72.05 11.55 71.64 12.4 70.72 13.1 69.8 13.8 68.09 13.8ZM77-4.75L77-4.75Q79.84-4.75 81.4-6.55 82.95-8.35 82.95-10.7L82.95-10.7Q82.95-12.75 81.84-13.88 80.75-15 78.9-15L78.9-15Q77-15 75.55-13.88 74.09-12.75 73.07-10.95 72.05-9.15 71.39-7.1L71.39-7.1Q73.9-4.75 77-4.75ZM98.64 0.65L98.64 0.65Q95.19 0.65 93.12-1.23 91.04-3.1 91.04-6.75L91.04-6.75Q91.04-8.45 91.52-10.05 91.99-11.65 92.79-13.05L92.79-13.05Q91.99-12.55 91.59-12.55L91.59-12.55Q90.99-12.55 90.77-13.23 90.54-13.9 90.54-14.55L90.54-14.55Q90.54-15.7 91.02-16.38 91.49-17.05 91.94-17.4L91.94-17.4Q92.99-18.3 95.24-19.38 97.49-20.45 100.64-20.45L100.64-20.45Q104.94-20.45 107.32-18.05 109.69-15.65 109.69-11.35L109.69-11.35Q109.69-8 108.29-5.28 106.89-2.55 104.42-0.95 101.94 0.65 98.64 0.65ZM100.19-4.45L100.19-4.45Q102.69-4.45 104.42-6.03 106.14-7.6 106.14-10.2L106.14-10.2Q106.14-12.9 104.39-14.05 102.64-15.2 100.34-15.2L100.34-15.2Q99.29-15.2 98.44-15 97.59-14.8 96.84-14.5L96.84-14.5Q96.14-13.5 95.59-12.25 95.04-11 95.04-9.5L95.04-9.5Q95.04-7 96.54-5.73 98.04-4.45 100.19-4.45ZM120.14 0.7L120.14 0.7Q118.74 0.7 117.77-0.13 116.79-0.95 116.64-3.2L116.64-3.2Q116.54-4.9 116.22-7 115.89-9.1 115.44-10.95 114.99-12.8 114.39-13.75L114.39-13.75Q114.04-14.3 113.61-14.58 113.19-14.85 112.34-14.95L112.34-14.95Q111.44-15 111.44-16.25L111.44-16.25Q111.44-18.3 112.54-19.28 113.64-20.25 115.04-20.25L115.04-20.25Q116.54-20.25 117.49-19.28 118.44-18.3 118.97-16.68 119.49-15.05 119.72-13.05 119.94-11.05 119.94-9L119.94-9Q119.94-8.25 119.92-7.53 119.89-6.8 119.89-6.1L119.89-6.1Q119.89-5.6 120.09-5.28 120.29-4.95 121.09-4.95L121.09-4.95Q122.19-4.95 123.69-5.53 125.19-6.1 126.31-7.45 127.44-8.8 127.44-11.05L127.44-11.05Q127.44-12.2 127.09-12.98 126.74-13.75 126.14-14.45L126.14-14.45Q125.94-14.7 125.79-14.95 125.64-15.2 125.64-15.55L125.64-15.55Q125.64-16.5 126.42-17.07 127.19-17.65 128.16-17.93 129.14-18.2 129.79-18.2L129.79-18.2Q130.44-18.2 130.81-17.88 131.19-17.55 131.39-16.6L131.39-16.6Q131.59-15.95 131.69-15.18 131.79-14.4 131.79-13.4L131.79-13.4Q131.79-11.85 131.66-10.9 131.54-9.95 131.39-9.2L131.39-9.2Q131.24-8.55 131.16-7.93 131.09-7.3 131.09-6.45L131.09-6.45Q131.09-5.55 131.44-5.25 131.79-4.95 132.54-4.95L132.54-4.95Q135.39-4.95 137.19-6.93 138.99-8.9 138.99-11.75L138.99-11.75Q138.99-12.75 138.69-13.63 138.39-14.5 137.64-15.3L137.64-15.3Q137.24-15.8 136.99-16.13 136.74-16.45 136.74-16.95L136.74-16.95Q136.74-17.85 137.56-18.6 138.39-19.35 139.51-19.83 140.64-20.3 141.54-20.3L141.54-20.3Q142.89-20.3 143.29-19.05 143.69-17.8 143.69-16.2L143.69-16.2Q143.69-13.5 142.91-10.58 142.14-7.65 140.69-5.08 139.24-2.5 137.14-0.9 135.04 0.7 132.39 0.7L132.39 0.7Q129.69 0.7 128.69-0.85 127.69-2.4 127.84-4.6L127.84-4.6Q126.34-2.3 124.31-0.8 122.29 0.7 120.14 0.7ZM154.69 0.65L154.69 0.65Q150.89 0.65 148.76-1.53 146.64-3.7 146.64-7.6L146.64-7.6Q146.64-11.15 148.19-14.05 149.74-16.95 152.36-18.68 154.99-20.4 158.14-20.4L158.14-20.4Q161.14-20.4 162.94-18.93 164.74-17.45 164.74-15L164.74-15Q164.74-13.05 163.54-11.4 162.34-9.75 160.34-8.78 158.34-7.8 155.89-7.8L155.89-7.8Q152.89-7.8 150.99-9.15L150.99-9.15Q151.04-6.85 152.56-5.45 154.09-4.05 156.49-4.05L156.49-4.05Q157.94-4.05 159.46-4.58 160.99-5.1 162.09-6L162.09-6Q162.79-6.6 163.39-6.6L163.39-6.6Q163.89-6.6 164.21-6.28 164.54-5.95 164.54-5.45L164.54-5.45Q164.54-4.35 162.64-2.55L162.64-2.55Q159.29 0.65 154.69 0.65ZM155.44-11.1L155.44-11.1Q157.24-11.1 158.44-11.85 159.64-12.6 159.64-13.75L159.64-13.75Q159.64-14.7 158.84-15.23 158.04-15.75 156.64-15.75L156.64-15.75Q154.79-15.75 153.41-14.78 152.04-13.8 151.44-12.05L151.44-12.05Q152.14-11.6 153.24-11.35 154.34-11.1 155.44-11.1ZM171.59 0.55L171.59 0.55Q170.78 0.55 170.31 0.28 169.84 0 169.99-0.65L169.99-0.65Q170.53-2.8 170.91-5.03 171.28-7.25 171.28-9.3L171.28-9.3Q171.28-11.95 170.96-13.18 170.63-14.4 170.09-14.88 169.53-15.35 168.74-15.6L168.74-15.6Q168.38-15.75 168.11-16 167.84-16.25 167.84-16.7L167.84-16.7Q167.84-17.4 168.38-18.25 168.94-19.1 169.94-19.73 170.94-20.35 172.24-20.35L172.24-20.35Q173.94-20.35 174.61-19.18 175.28-18 175.28-16.1L175.28-16.1Q176.19-18.1 177.51-19.28 178.84-20.45 180.84-20.45L180.84-20.45Q182.19-20.45 183.09-19.85 183.99-19.25 183.99-17.9L183.99-17.9Q183.99-16.55 183.11-15.38 182.24-14.2 181.34-14.2L181.34-14.2Q181.19-14.2 180.99-14.25 180.78-14.3 180.63-14.5L180.63-14.5Q179.99-15.3 179.03-15.3L179.03-15.3Q177.59-15.3 176.49-13.4 175.38-11.5 175.28-8.15L175.28-8.15Q175.34-6.9 175.36-5.6 175.38-4.3 175.38-3.7L175.38-3.7Q175.38-1.85 174.36-0.65 173.34 0.55 171.59 0.55ZM206.28 0.5L206.28 0.5Q205.68 0.5 205.06 0.3 204.43 0.1 204.03-0.65 203.63-1.4 203.63-2.95L203.63-2.95Q203.63-4.05 203.81-5.65 203.98-7.25 204.28-9.1L204.28-9.1Q204.68-11.6 204.96-14.38 205.23-17.15 205.23-20.05L205.23-20.05Q205.23-22.4 205.01-24.13 204.78-25.85 204.43-26.8L204.43-26.8Q202.53-26.75 200.83-26.55 199.13-26.35 197.38-25.9L197.38-25.9Q196.93-25.85 196.61-25.78 196.28-25.7 195.98-25.7L195.98-25.7Q195.53-25.7 195.33-25.88 195.13-26.05 195.13-26.75L195.13-26.75Q195.13-27.6 195.38-28.53 195.63-29.45 196.13-30.1L196.13-30.1Q196.63-30.8 197.31-31.13 197.98-31.45 198.78-31.55L198.78-31.55Q200.03-31.7 201.98-31.83 203.93-31.95 206.26-32.05 208.58-32.15 210.83-32.15L210.83-32.15Q214.48-32.15 216.06-32.1 217.63-32.05 218.18-31.95L218.18-31.95Q218.88-31.85 219.16-31.53 219.43-31.2 219.43-30.5L219.43-30.5Q219.43-29.15 218.23-27.8L218.23-27.8Q217.73-27.2 217.18-26.88 216.63-26.55 215.73-26.6L215.73-26.6Q214.93-26.7 213.38-26.75 211.83-26.8 209.93-26.8L209.93-26.8Q209.88-25.05 209.66-22.73 209.43-20.4 209.13-18.05L209.13-18.05Q208.83-15.75 208.63-13.45 208.43-11.15 208.43-9.25L208.43-9.25Q208.43-7.5 208.76-6.18 209.08-4.85 210.08-3.9L210.08-3.9Q210.78-3.2 210.78-2.4L210.78-2.4Q210.78-1.3 209.53-0.4 208.28 0.5 206.28 0.5ZM223.18 0.55L223.18 0.55Q222.48 0.55 221.98 0.23 221.48-0.1 221.58-0.65L221.58-0.65Q222.33-4.65 222.85-8.78 223.38-12.9 223.38-17.1L223.38-17.1Q223.38-20.8 223.13-23.8 222.88-26.8 221.53-29.55L221.53-29.55Q221.28-30.1 221.13-30.5 220.98-30.9 220.98-31.25L220.98-31.25Q220.98-32.2 222.1-33.1 223.23-34 224.48-34L224.48-34Q226.23-34 226.88-31.8 227.53-29.6 227.53-25.3L227.53-25.3Q227.53-20.15 226.93-16.32 226.33-12.5 225.88-10.5L225.88-10.5 226.08-10.4Q227.08-13.05 228.5-15.35 229.93-17.65 231.83-19.05 233.73-20.45 236.23-20.45L236.23-20.45Q238.88-20.45 240.25-18.85 241.63-17.25 241.63-14.9L241.63-14.9Q241.63-13.9 241.43-12.98 241.23-12.05 240.98-11.2L240.98-11.2Q240.73-10.4 240.53-9.58 240.33-8.75 240.33-7.9L240.33-7.9Q240.33-6.35 241.08-5.38 241.83-4.4 243.08-4L243.08-4Q243.43-3.9 243.6-3.73 243.78-3.55 243.78-3.1L243.78-3.1Q243.78-2.65 243.48-1.8 243.18-0.95 242.38-0.23 241.58 0.5 240.03 0.5L240.03 0.5Q238.03 0.5 236.93-0.93 235.83-2.35 235.83-4.6L235.83-4.6Q235.83-5.7 236.05-6.85 236.28-8 236.58-9.05L236.58-9.05Q236.83-10.1 237.03-11.03 237.23-11.95 237.23-12.6L237.23-12.6Q237.23-14.9 234.83-14.9L234.83-14.9Q232.83-14.9 231.3-13.48 229.78-12.05 228.7-9.88 227.63-7.7 226.93-5.4L226.93-5.4 226.93-3.7Q226.93-1.85 225.85-0.65 224.78 0.55 223.18 0.55ZM249.98 0.55L249.98 0.55Q249.18 0.55 248.7 0.28 248.23 0 248.38-0.65L248.38-0.65Q248.93-2.8 249.3-5.03 249.68-7.25 249.68-9.3L249.68-9.3Q249.68-11.95 249.35-13.18 249.03-14.4 248.48-14.88 247.93-15.35 247.13-15.6L247.13-15.6Q246.78-15.75 246.5-16 246.23-16.25 246.23-16.7L246.23-16.7Q246.23-17.4 246.78-18.25 247.33-19.1 248.33-19.73 249.33-20.35 250.63-20.35L250.63-20.35Q252.33-20.35 253-19.18 253.68-18 253.68-16.1L253.68-16.1Q254.58-18.1 255.9-19.28 257.23-20.45 259.23-20.45L259.23-20.45Q260.58-20.45 261.48-19.85 262.38-19.25 262.38-17.9L262.38-17.9Q262.38-16.55 261.5-15.38 260.63-14.2 259.73-14.2L259.73-14.2Q259.58-14.2 259.38-14.25 259.18-14.3 259.03-14.5L259.03-14.5Q258.38-15.3 257.43-15.3L257.43-15.3Q255.98-15.3 254.88-13.4 253.78-11.5 253.68-8.15L253.68-8.15Q253.73-6.9 253.75-5.6 253.78-4.3 253.78-3.7L253.78-3.7Q253.78-1.85 252.75-0.65 251.73 0.55 249.98 0.55ZM272.07 0.65L272.07 0.65Q268.62 0.65 266.55-1.23 264.47-3.1 264.47-6.75L264.47-6.75Q264.47-8.45 264.95-10.05 265.42-11.65 266.22-13.05L266.22-13.05Q265.42-12.55 265.02-12.55L265.02-12.55Q264.42-12.55 264.2-13.23 263.97-13.9 263.97-14.55L263.97-14.55Q263.97-15.7 264.45-16.38 264.92-17.05 265.37-17.4L265.37-17.4Q266.42-18.3 268.67-19.38 270.92-20.45 274.07-20.45L274.07-20.45Q278.37-20.45 280.75-18.05 283.12-15.65 283.12-11.35L283.12-11.35Q283.12-8 281.72-5.28 280.32-2.55 277.85-0.95 275.37 0.65 272.07 0.65ZM273.62-4.45L273.62-4.45Q276.12-4.45 277.85-6.03 279.57-7.6 279.57-10.2L279.57-10.2Q279.57-12.9 277.82-14.05 276.07-15.2 273.77-15.2L273.77-15.2Q272.72-15.2 271.87-15 271.02-14.8 270.27-14.5L270.27-14.5Q269.57-13.5 269.02-12.25 268.47-11 268.47-9.5L268.47-9.5Q268.47-7 269.97-5.73 271.47-4.45 273.62-4.45ZM293.22 0.65L293.22 0.65Q290.72 0.65 289.35-0.8 287.97-2.25 287.97-5L287.97-5Q287.97-6.95 288.52-9L288.52-9Q288.77-9.85 288.92-10.7 289.07-11.55 289.07-12.4L289.07-12.4Q289.07-14.6 287.72-15.25L287.72-15.25Q286.42-15.95 286.42-16.75L286.42-16.75Q286.42-17.55 287.1-18.35 287.77-19.15 288.77-19.68 289.77-20.2 290.77-20.2L290.77-20.2Q293.62-20.2 293.62-15.55L293.62-15.55Q293.62-14.05 293.4-12.78 293.17-11.5 292.87-10.35L292.87-10.35Q292.67-9.55 292.55-8.75 292.42-7.95 292.42-7.35L292.42-7.35Q292.42-4.85 294.87-4.85L294.87-4.85Q297.17-4.85 299.17-7.3 301.17-9.75 302.47-14.15L302.47-14.15 302.42-15.1Q302.32-17.6 303.3-18.9 304.27-20.2 306.17-20.2L306.17-20.2Q307.82-20.2 307.82-19.15L307.82-19.15Q307.82-18.8 307.7-18.25 307.57-17.7 307.32-16.95L307.32-16.95Q306.82-15.1 306.47-13.03 306.12-10.95 306.12-9.2L306.12-9.2Q306.12-7.25 306.72-5.98 307.32-4.7 308.97-4.25L308.97-4.25Q309.42-4.2 309.7-3.98 309.97-3.75 309.97-3.05L309.97-3.05Q309.97-1.85 308.97-0.7 307.97 0.45 306.07 0.45L306.07 0.45Q302.42 0.45 302.42-4.7L302.42-4.7Q302.42-5.6 302.57-7.4L302.57-7.4 302.47-7.45Q299.32 0.65 293.22 0.65ZM319.32 13.8L319.32 13.8Q315.57 13.8 313.37 12.25 311.17 10.7 311.17 8.25L311.17 8.25Q311.17 6.45 312.29 5.05 313.42 3.65 315.27 3.65L315.27 3.65Q316.32 3.65 316.32 4.25L316.32 4.25Q316.32 4.6 316.19 5.05 316.07 5.5 316.07 5.95L316.07 5.95Q316.07 7.35 317.67 8.03 319.27 8.7 321.52 8.7L321.52 8.7Q322.92 8.7 324.37 8.4 325.82 8.1 326.79 7.48 327.77 6.85 327.77 5.8L327.77 5.8Q327.77 4.65 326.62 4.1 325.47 3.55 323.72 3.28 321.97 3 320.14 2.78 318.32 2.55 317.02 2.05L317.02 2.05Q315.37 1.5 314.57 0.7 313.77-0.1 313.77-1.35L313.77-1.35Q313.77-3.7 316.62-5.1L316.62-5.1Q314.97-5.95 314.14-7.5 313.32-9.05 313.32-10.95L313.32-10.95Q313.32-13.4 314.59-15.55 315.87-17.7 318.39-19.07 320.92-20.45 324.72-20.45L324.72-20.45Q326.42-20.45 328.17-20.13 329.92-19.8 331.09-18.93 332.27-18.05 332.27-16.4L332.27-16.4Q332.27-15.8 332.02-15.08 331.77-14.35 331.07-14.35L331.07-14.35Q330.77-14.35 330.27-14.48 329.77-14.6 329.37-14.7L329.37-14.7Q329.47-14.2 329.54-13.6 329.62-13 329.62-12.35L329.62-12.35Q329.62-9.4 327.62-7.03 325.62-4.65 321.77-4.2L321.77-4.2Q320.37-4.1 319.69-3.88 319.02-3.65 319.02-3.1L319.02-3.1Q319.02-2.6 319.62-2.38 320.22-2.15 321.17-2.05L321.17-2.05Q324.22-1.8 326.57-1.2 328.92-0.6 330.24 0.73 331.57 2.05 331.57 4.5L331.57 4.5Q331.57 7.35 329.89 9.43 328.22 11.5 325.42 12.65 322.62 13.8 319.32 13.8ZM321.22-8.55L321.22-8.55Q323.52-8.55 324.82-9.8 326.12-11.05 326.12-13.05L326.12-13.05Q326.12-13.6 326.02-14.18 325.92-14.75 325.82-15.15L325.82-15.15Q325.02-15.4 324.27-15.48 323.52-15.55 322.82-15.55L322.82-15.55Q320.17-15.55 318.67-14.55 317.17-13.55 317.17-11.8L317.17-11.8Q317.17-10.25 318.27-9.4 319.37-8.55 321.22-8.55ZM336.87 0.55L336.87 0.55Q336.17 0.55 335.67 0.23 335.17-0.1 335.27-0.65L335.27-0.65Q336.02-4.65 336.54-8.78 337.07-12.9 337.07-17.1L337.07-17.1Q337.07-20.8 336.82-23.8 336.57-26.8 335.22-29.55L335.22-29.55Q334.97-30.1 334.82-30.5 334.67-30.9 334.67-31.25L334.67-31.25Q334.67-32.2 335.79-33.1 336.92-34 338.17-34L338.17-34Q339.92-34 340.57-31.8 341.22-29.6 341.22-25.3L341.22-25.3Q341.22-20.15 340.62-16.32 340.02-12.5 339.57-10.5L339.57-10.5 339.77-10.4Q340.77-13.05 342.19-15.35 343.62-17.65 345.52-19.05 347.42-20.45 349.92-20.45L349.92-20.45Q352.57-20.45 353.94-18.85 355.32-17.25 355.32-14.9L355.32-14.9Q355.32-13.9 355.12-12.98 354.92-12.05 354.67-11.2L354.67-11.2Q354.42-10.4 354.22-9.58 354.02-8.75 354.02-7.9L354.02-7.9Q354.02-6.35 354.77-5.38 355.52-4.4 356.77-4L356.77-4Q357.12-3.9 357.29-3.73 357.47-3.55 357.47-3.1L357.47-3.1Q357.47-2.65 357.17-1.8 356.87-0.95 356.07-0.23 355.27 0.5 353.72 0.5L353.72 0.5Q351.72 0.5 350.62-0.93 349.52-2.35 349.52-4.6L349.52-4.6Q349.52-5.7 349.74-6.85 349.97-8 350.27-9.05L350.27-9.05Q350.52-10.1 350.72-11.03 350.92-11.95 350.92-12.6L350.92-12.6Q350.92-14.9 348.52-14.9L348.52-14.9Q346.52-14.9 344.99-13.48 343.47-12.05 342.39-9.88 341.32-7.7 340.62-5.4L340.62-5.4 340.62-3.7Q340.62-1.85 339.54-0.65 338.47 0.55 336.87 0.55ZM382.06 0.65L382.06 0.65Q379.61 0.65 377.54-0.08 375.46-0.8 374.21-2.1 372.96-3.4 372.96-5.15L372.96-5.15Q372.96-6.3 373.51-7.18 374.06-8.05 375.01-8.05L375.01-8.05Q375.61-8.05 376.26-7.6L376.26-7.6Q377.51-6.5 379.49-5.68 381.46-4.85 383.71-4.85L383.71-4.85Q386.66-4.85 388.54-6.03 390.41-7.2 390.41-9.2L390.41-9.2Q390.41-11.1 388.66-11.95 386.91-12.8 383.81-13.55L383.81-13.55Q381.51-14.1 379.39-14.95 377.26-15.8 375.89-17.32 374.51-18.85 374.51-21.4L374.51-21.4Q374.51-23.35 375.36-25.28 376.21-27.2 377.86-28.8 379.51-30.4 381.86-31.38 384.21-32.35 387.16-32.35L387.16-32.35Q389.36-32.35 391.19-31.85 393.01-31.35 394.09-30.45 395.16-29.55 395.16-28.25L395.16-28.25Q395.16-27.25 394.61-26.5 394.06-25.75 393.31-25.33 392.56-24.9 392.01-24.9L392.01-24.9Q391.51-24.9 390.66-25.35L390.66-25.35Q389.26-26.1 387.54-26.53 385.81-26.95 384.51-26.95L384.51-26.95Q382.06-26.95 380.54-25.88 379.01-24.8 379.01-23.35L379.01-23.35Q379.01-21.75 380.94-20.68 382.86-19.6 387.86-18.4L387.86-18.4Q391.26-17.5 393.16-15.93 395.06-14.35 395.06-10.95L395.06-10.95Q395.06-7.9 393.44-5.25 391.81-2.6 388.89-0.98 385.96 0.65 382.06 0.65ZM400.41 0.55L400.41 0.55Q399.86 0.55 399.36 0.23 398.86-0.1 398.96-0.65L398.96-0.65Q399.71-4.65 400.23-8.78 400.76-12.9 400.76-17.1L400.76-17.1Q400.76-20.8 400.51-23.8 400.26-26.8 398.91-29.55L398.91-29.55Q398.66-30.1 398.51-30.5 398.36-30.9 398.36-31.25L398.36-31.25Q398.36-32.2 399.46-33.1 400.56-34 401.81-34L401.81-34Q403.61-34 404.26-31.8 404.91-29.6 404.91-25.3L404.91-25.3Q404.91-20.15 404.31-16.32 403.71-12.5 403.26-10.5L403.26-10.5 403.46-10.4Q404.46-12.85 406.01-15.13 407.56-17.4 409.58-18.9 411.61-20.4 414.01-20.4L414.01-20.4Q416.36-20.4 417.63-19 418.91-17.6 418.91-15.65L418.91-15.65Q418.91-13.35 417.26-11.55 415.61-9.75 412.96-8.55L412.96-8.55Q413.61-6.85 414.81-5.88 416.01-4.9 417.86-4.9L417.86-4.9Q418.46-4.9 418.86-5L418.86-5Q419.51-5.15 419.51-3.75L419.51-3.75Q419.51-2.95 419.21-1.95 418.91-0.95 418.03-0.23 417.16 0.5 415.41 0.5L415.41 0.5Q413.06 0.5 411.58-0.88 410.11-2.25 409.28-4.28 408.46-6.3 408.01-8.3L408.01-8.3Q407.61-10.15 409.26-10.25L409.26-10.25Q411.01-10.45 412.21-11.3 413.41-12.15 413.41-13.55L413.41-13.55Q413.41-15.15 411.86-15.15L411.86-15.15Q410.86-15.15 409.83-14.43 408.81-13.7 407.93-12.7 407.06-11.7 406.51-10.75L406.51-10.75Q405.76-9.45 405.21-8.2 404.66-6.95 404.31-5.7L404.31-5.7 404.31-3.7Q404.31-1.85 403.23-0.65 402.16 0.55 400.41 0.55ZM427.71-24.85L427.71-24.85Q426.31-24.9 425.46-25.7 424.61-26.5 424.61-27.95L424.61-27.95Q424.66-29.5 425.66-30.48 426.66-31.45 428.21-31.4L428.21-31.4Q429.66-31.35 430.48-30.55 431.31-29.75 431.26-28.3L431.26-28.3Q431.21-26.8 430.26-25.83 429.31-24.85 427.71-24.85ZM427.76 0.5L427.76 0.5Q426.26 0.5 425.41-0.33 424.56-1.15 424.56-3.15L424.56-3.15Q424.56-4.3 424.78-5.4 425.01-6.5 425.31-7.55L425.31-7.55Q425.66-8.65 425.88-9.8 426.11-10.95 426.11-12.25L426.11-12.25Q426.11-13.15 425.86-13.98 425.61-14.8 424.76-15.2L424.76-15.2Q424.11-15.55 423.63-15.93 423.16-16.3 423.16-16.9L423.16-16.9Q423.16-17.6 423.81-18.4 424.46-19.2 425.53-19.78 426.61-20.35 427.76-20.35L427.76-20.35Q429.01-20.35 429.58-19.7 430.16-19.05 430.36-18.05 430.56-17.05 430.56-16L430.56-16Q430.56-14.4 430.31-12.88 430.06-11.35 429.81-10.05L429.81-10.05Q429.61-9.1 429.51-8.3 429.41-7.5 429.41-6.8L429.41-6.8Q429.41-5.55 430.01-4.93 430.61-4.3 431.71-3.75L431.71-3.75Q432.16-3.5 432.16-3L432.16-3Q432.16-2.6 431.76-1.75 431.36-0.9 430.38-0.2 429.41 0.5 427.76 0.5ZM439.6 0.5L439.6 0.5Q438.15 0.5 437.45-0.3 436.75-1.1 436.75-3.1L436.75-3.1Q436.75-4.05 436.9-5.55 437.05-7.05 437.25-8.8L437.25-8.8Q437.55-10.95 437.78-13.3 438-15.65 438-17.8L438-17.8Q438-20.85 437.73-24.13 437.45-27.4 436.2-29.85L436.2-29.85Q435.75-30.85 435.75-31.3L435.75-31.3Q435.75-31.95 436.33-32.55 436.9-33.15 437.75-33.58 438.6-34 439.4-34L439.4-34Q440.7-34 441.35-32.83 442-31.65 442.2-29.63 442.4-27.6 442.4-25L442.4-25Q442.4-21.05 442.08-18.15 441.75-15.25 441.45-13.05L441.45-13.05Q441.25-11.6 441.08-10.3 440.9-9 440.9-7.95L440.9-7.95Q440.9-6.2 441.48-5.43 442.05-4.65 443.35-3.9L443.35-3.9Q443.7-3.7 443.88-3.53 444.05-3.35 444.05-3L444.05-3Q444.05-2.6 443.65-1.75 443.25-0.9 442.28-0.2 441.3 0.5 439.6 0.5ZM451 0.5L451 0.5Q449.55 0.5 448.85-0.3 448.15-1.1 448.15-3.1L448.15-3.1Q448.15-4.05 448.3-5.55 448.45-7.05 448.65-8.8L448.65-8.8Q448.95-10.95 449.18-13.3 449.4-15.65 449.4-17.8L449.4-17.8Q449.4-20.85 449.13-24.13 448.85-27.4 447.6-29.85L447.6-29.85Q447.15-30.85 447.15-31.3L447.15-31.3Q447.15-31.95 447.73-32.55 448.3-33.15 449.15-33.58 450-34 450.8-34L450.8-34Q452.1-34 452.75-32.83 453.4-31.65 453.6-29.63 453.8-27.6 453.8-25L453.8-25Q453.8-21.05 453.48-18.15 453.15-15.25 452.85-13.05L452.85-13.05Q452.65-11.6 452.48-10.3 452.3-9 452.3-7.95L452.3-7.95Q452.3-6.2 452.88-5.43 453.45-4.65 454.75-3.9L454.75-3.9Q455.1-3.7 455.28-3.53 455.45-3.35 455.45-3L455.45-3Q455.45-2.6 455.05-1.75 454.65-0.9 453.68-0.2 452.7 0.5 451 0.5ZM465.3 0.65L465.3 0.65Q463.45 0.65 461.85 0.1 460.25-0.45 459.25-1.45 458.25-2.45 458.25-3.85L458.25-3.85Q458.25-4.6 458.62-5.28 459-5.95 459.85-5.95L459.85-5.95Q460.3-5.95 460.8-5.7L460.8-5.7Q461.7-5.2 463.1-4.78 464.5-4.35 466.05-4.35L466.05-4.35Q467.8-4.35 469.15-4.85 470.5-5.35 470.5-6.25L470.5-6.25Q470.5-6.95 469.47-7.25 468.45-7.55 466.05-7.9L466.05-7.9Q464.4-8.2 462.85-8.6 461.3-9 460.3-9.98 459.3-10.95 459.3-12.85L459.3-12.85Q459.3-14.7 460.32-16.43 461.35-18.15 463.4-19.3 465.45-20.45 468.4-20.45L468.4-20.45Q469.95-20.45 471.4-20.1 472.85-19.75 473.8-19.05 474.75-18.35 474.75-17.3L474.75-17.3Q474.75-16.4 474.12-15.65 473.5-14.9 472.67-14.43 471.85-13.95 471.3-13.95L471.3-13.95Q470.9-13.95 470.35-14.5L470.35-14.5Q469.5-15.2 468.47-15.48 467.45-15.75 466.45-15.75L466.45-15.75Q464.95-15.75 464.02-15.3 463.1-14.85 463.1-14.15L463.1-14.15Q463.1-13.5 463.87-13.1 464.65-12.7 465.8-12.53 466.95-12.35 468-12.2L468-12.2Q470.9-11.8 472.6-10.83 474.3-9.85 474.3-7.4L474.3-7.4Q474.3-5.5 473.22-3.63 472.15-1.75 470.12-0.55 468.1 0.65 465.3 0.65ZM478.19 7.75L478.19 7.75Q477.75 7.75 477.42 7.53 477.1 7.3 477.1 6.8L477.1 6.8Q477.1 6.1 478.19 5.25L478.19 5.25Q479.35 4.25 479.92 2.88 480.5 1.5 480.5 0.65L480.5 0.65Q480.5 0.3 480.32 0.08 480.14-0.15 479.44-0.5L479.44-0.5Q478.8-0.85 478.47-1.55 478.14-2.25 478.14-2.95L478.14-2.95Q478.14-4.15 479.05-5.13 479.94-6.1 481.5-6.1L481.5-6.1Q482.89-6.1 483.8-5.18 484.69-4.25 484.69-2.2L484.69-2.2Q484.69-0.5 484.07 1.2 483.44 2.9 482.55 4.3 481.64 5.7 480.69 6.55L480.69 6.55Q479.35 7.75 478.19 7.75ZM507.49 0.65L507.49 0.65Q505.04 0.65 502.96-0.08 500.89-0.8 499.64-2.1 498.39-3.4 498.39-5.15L498.39-5.15Q498.39-6.3 498.94-7.18 499.49-8.05 500.44-8.05L500.44-8.05Q501.04-8.05 501.69-7.6L501.69-7.6Q502.94-6.5 504.92-5.68 506.89-4.85 509.14-4.85L509.14-4.85Q512.09-4.85 513.97-6.03 515.84-7.2 515.84-9.2L515.84-9.2Q515.84-11.1 514.09-11.95 512.34-12.8 509.24-13.55L509.24-13.55Q506.94-14.1 504.81-14.95 502.69-15.8 501.31-17.32 499.94-18.85 499.94-21.4L499.94-21.4Q499.94-23.35 500.79-25.28 501.64-27.2 503.29-28.8 504.94-30.4 507.29-31.38 509.64-32.35 512.59-32.35L512.59-32.35Q514.79-32.35 516.62-31.85 518.44-31.35 519.51-30.45 520.59-29.55 520.59-28.25L520.59-28.25Q520.59-27.25 520.04-26.5 519.49-25.75 518.74-25.33 517.99-24.9 517.44-24.9L517.44-24.9Q516.94-24.9 516.09-25.35L516.09-25.35Q514.69-26.1 512.97-26.53 511.24-26.95 509.94-26.95L509.94-26.95Q507.49-26.95 505.96-25.88 504.44-24.8 504.44-23.35L504.44-23.35Q504.44-21.75 506.37-20.68 508.29-19.6 513.29-18.4L513.29-18.4Q516.69-17.5 518.59-15.93 520.49-14.35 520.49-10.95L520.49-10.95Q520.49-7.9 518.87-5.25 517.24-2.6 514.32-0.98 511.39 0.65 507.49 0.65ZM532.14 0.65L532.14 0.65Q528.34 0.65 526.21-1.53 524.09-3.7 524.09-7.6L524.09-7.6Q524.09-11.15 525.64-14.05 527.19-16.95 529.81-18.68 532.44-20.4 535.59-20.4L535.59-20.4Q538.59-20.4 540.39-18.93 542.19-17.45 542.19-15L542.19-15Q542.19-13.05 540.99-11.4 539.79-9.75 537.79-8.78 535.79-7.8 533.34-7.8L533.34-7.8Q530.34-7.8 528.44-9.15L528.44-9.15Q528.49-6.85 530.01-5.45 531.54-4.05 533.94-4.05L533.94-4.05Q535.39-4.05 536.91-4.58 538.44-5.1 539.54-6L539.54-6Q540.24-6.6 540.84-6.6L540.84-6.6Q541.34-6.6 541.66-6.28 541.99-5.95 541.99-5.45L541.99-5.45Q541.99-4.35 540.09-2.55L540.09-2.55Q536.74 0.65 532.14 0.65ZM532.89-11.1L532.89-11.1Q534.69-11.1 535.89-11.85 537.09-12.6 537.09-13.75L537.09-13.75Q537.09-14.7 536.29-15.23 535.49-15.75 534.09-15.75L534.09-15.75Q532.24-15.75 530.86-14.78 529.49-13.8 528.89-12.05L528.89-12.05Q529.59-11.6 530.69-11.35 531.79-11.1 532.89-11.1ZM553.08 0.65L553.08 0.65Q549.58 0.65 547.61-1.48 545.63-3.6 545.63-7.4L545.63-7.4Q545.63-11.15 547.23-14.1 548.83-17.05 551.63-18.75 554.43-20.45 557.98-20.45L557.98-20.45Q560.38-20.45 561.78-19.65 563.18-18.85 563.18-17.45L563.18-17.45Q563.18-16.2 561.98-15L561.98-15Q561.53-14.55 560.81-14.18 560.08-13.8 559.68-13.8L559.68-13.8Q559.23-13.8 558.93-14.15L558.93-14.15Q558.43-14.7 557.63-15.2 556.83-15.7 555.38-15.7L555.38-15.7Q552.93-15.7 551.38-14.03 549.83-12.35 549.83-9.65L549.83-9.65Q549.83-7.2 551.23-5.7 552.63-4.2 554.93-4.2L554.93-4.2Q556.13-4.2 557.56-4.63 558.98-5.05 560.08-5.85L560.08-5.85Q560.63-6.35 561.23-6.35L561.23-6.35Q562.23-6.35 562.23-5.1L562.23-5.1Q562.23-3.45 560.58-1.95L560.58-1.95Q559.33-0.8 557.26-0.08 555.18 0.65 553.08 0.65ZM572.58 0.65L572.58 0.65Q570.08 0.65 568.71-0.8 567.33-2.25 567.33-5L567.33-5Q567.33-6.95 567.88-9L567.88-9Q568.13-9.85 568.28-10.7 568.43-11.55 568.43-12.4L568.43-12.4Q568.43-14.6 567.08-15.25L567.08-15.25Q565.78-15.95 565.78-16.75L565.78-16.75Q565.78-17.55 566.46-18.35 567.13-19.15 568.13-19.68 569.13-20.2 570.13-20.2L570.13-20.2Q572.98-20.2 572.98-15.55L572.98-15.55Q572.98-14.05 572.76-12.78 572.53-11.5 572.23-10.35L572.23-10.35Q572.03-9.55 571.91-8.75 571.78-7.95 571.78-7.35L571.78-7.35Q571.78-4.85 574.23-4.85L574.23-4.85Q576.53-4.85 578.53-7.3 580.53-9.75 581.83-14.15L581.83-14.15 581.78-15.1Q581.68-17.6 582.66-18.9 583.63-20.2 585.53-20.2L585.53-20.2Q587.18-20.2 587.18-19.15L587.18-19.15Q587.18-18.8 587.06-18.25 586.93-17.7 586.68-16.95L586.68-16.95Q586.18-15.1 585.83-13.03 585.48-10.95 585.48-9.2L585.48-9.2Q585.48-7.25 586.08-5.98 586.68-4.7 588.33-4.25L588.33-4.25Q588.78-4.2 589.06-3.98 589.33-3.75 589.33-3.05L589.33-3.05Q589.33-1.85 588.33-0.7 587.33 0.45 585.43 0.45L585.43 0.45Q581.78 0.45 581.78-4.7L581.78-4.7Q581.78-5.6 581.93-7.4L581.93-7.4 581.83-7.45Q578.68 0.65 572.58 0.65ZM595.18 0.55L595.18 0.55Q594.38 0.55 593.9 0.28 593.43 0 593.58-0.65L593.58-0.65Q594.13-2.8 594.5-5.03 594.88-7.25 594.88-9.3L594.88-9.3Q594.88-11.95 594.55-13.18 594.23-14.4 593.68-14.88 593.13-15.35 592.33-15.6L592.33-15.6Q591.98-15.75 591.7-16 591.43-16.25 591.43-16.7L591.43-16.7Q591.43-17.4 591.98-18.25 592.53-19.1 593.53-19.73 594.53-20.35 595.83-20.35L595.83-20.35Q597.53-20.35 598.2-19.18 598.88-18 598.88-16.1L598.88-16.1Q599.78-18.1 601.1-19.28 602.43-20.45 604.43-20.45L604.43-20.45Q605.78-20.45 606.68-19.85 607.58-19.25 607.58-17.9L607.58-17.9Q607.58-16.55 606.7-15.38 605.83-14.2 604.93-14.2L604.93-14.2Q604.78-14.2 604.58-14.25 604.38-14.3 604.23-14.5L604.23-14.5Q603.58-15.3 602.63-15.3L602.63-15.3Q601.18-15.3 600.08-13.4 598.98-11.5 598.88-8.15L598.88-8.15Q598.93-6.9 598.95-5.6 598.98-4.3 598.98-3.7L598.98-3.7Q598.98-1.85 597.95-0.65 596.93 0.55 595.18 0.55ZM616.03 0.65L616.03 0.65Q612.23 0.65 610.1-1.53 607.98-3.7 607.98-7.6L607.98-7.6Q607.98-11.15 609.53-14.05 611.08-16.95 613.7-18.68 616.33-20.4 619.48-20.4L619.48-20.4Q622.48-20.4 624.28-18.93 626.08-17.45 626.08-15L626.08-15Q626.08-13.05 624.88-11.4 623.68-9.75 621.68-8.78 619.68-7.8 617.23-7.8L617.23-7.8Q614.23-7.8 612.33-9.15L612.33-9.15Q612.38-6.85 613.9-5.45 615.43-4.05 617.83-4.05L617.83-4.05Q619.28-4.05 620.8-4.58 622.33-5.1 623.43-6L623.43-6Q624.13-6.6 624.73-6.6L624.73-6.6Q625.23-6.6 625.55-6.28 625.88-5.95 625.88-5.45L625.88-5.45Q625.88-4.35 623.98-2.55L623.98-2.55Q620.63 0.65 616.03 0.65ZM616.78-11.1L616.78-11.1Q618.58-11.1 619.78-11.85 620.98-12.6 620.98-13.75L620.98-13.75Q620.98-14.7 620.18-15.23 619.38-15.75 617.98-15.75L617.98-15.75Q616.13-15.75 614.75-14.78 613.38-13.8 612.78-12.05L612.78-12.05Q613.48-11.6 614.58-11.35 615.68-11.1 616.78-11.1ZM652.12 0.5L652.12 0.5Q651.52 0.5 650.9 0.3 650.27 0.1 649.87-0.65 649.47-1.4 649.47-2.95L649.47-2.95Q649.47-4.05 649.65-5.65 649.82-7.25 650.12-9.1L650.12-9.1Q650.52-11.6 650.8-14.38 651.07-17.15 651.07-20.05L651.07-20.05Q651.07-22.4 650.85-24.13 650.62-25.85 650.27-26.8L650.27-26.8Q648.37-26.75 646.67-26.55 644.97-26.35 643.22-25.9L643.22-25.9Q642.77-25.85 642.45-25.78 642.12-25.7 641.82-25.7L641.82-25.7Q641.37-25.7 641.17-25.88 640.97-26.05 640.97-26.75L640.97-26.75Q640.97-27.6 641.22-28.53 641.47-29.45 641.97-30.1L641.97-30.1Q642.47-30.8 643.15-31.13 643.82-31.45 644.62-31.55L644.62-31.55Q645.87-31.7 647.82-31.83 649.77-31.95 652.1-32.05 654.42-32.15 656.67-32.15L656.67-32.15Q660.32-32.15 661.9-32.1 663.47-32.05 664.02-31.95L664.02-31.95Q664.72-31.85 665-31.53 665.27-31.2 665.27-30.5L665.27-30.5Q665.27-29.15 664.07-27.8L664.07-27.8Q663.57-27.2 663.02-26.88 662.47-26.55 661.57-26.6L661.57-26.6Q660.77-26.7 659.22-26.75 657.67-26.8 655.77-26.8L655.77-26.8Q655.72-25.05 655.5-22.73 655.27-20.4 654.97-18.05L654.97-18.05Q654.67-15.75 654.47-13.45 654.27-11.15 654.27-9.25L654.27-9.25Q654.27-7.5 654.6-6.18 654.92-4.85 655.92-3.9L655.92-3.9Q656.62-3.2 656.62-2.4L656.62-2.4Q656.62-1.3 655.37-0.4 654.12 0.5 652.12 0.5ZM669.02 0.55L669.02 0.55Q668.32 0.55 667.82 0.23 667.32-0.1 667.42-0.65L667.42-0.65Q668.17-4.65 668.69-8.78 669.22-12.9 669.22-17.1L669.22-17.1Q669.22-20.8 668.97-23.8 668.72-26.8 667.37-29.55L667.37-29.55Q667.12-30.1 666.97-30.5 666.82-30.9 666.82-31.25L666.82-31.25Q666.82-32.2 667.94-33.1 669.07-34 670.32-34L670.32-34Q672.07-34 672.72-31.8 673.37-29.6 673.37-25.3L673.37-25.3Q673.37-20.15 672.77-16.32 672.17-12.5 671.72-10.5L671.72-10.5 671.92-10.4Q672.92-13.05 674.34-15.35 675.77-17.65 677.67-19.05 679.57-20.45 682.07-20.45L682.07-20.45Q684.72-20.45 686.09-18.85 687.47-17.25 687.47-14.9L687.47-14.9Q687.47-13.9 687.27-12.98 687.07-12.05 686.82-11.2L686.82-11.2Q686.57-10.4 686.37-9.58 686.17-8.75 686.17-7.9L686.17-7.9Q686.17-6.35 686.92-5.38 687.67-4.4 688.92-4L688.92-4Q689.27-3.9 689.44-3.73 689.62-3.55 689.62-3.1L689.62-3.1Q689.62-2.65 689.32-1.8 689.02-0.95 688.22-0.23 687.42 0.5 685.87 0.5L685.87 0.5Q683.87 0.5 682.77-0.93 681.67-2.35 681.67-4.6L681.67-4.6Q681.67-5.7 681.89-6.85 682.12-8 682.42-9.05L682.42-9.05Q682.67-10.1 682.87-11.03 683.07-11.95 683.07-12.6L683.07-12.6Q683.07-14.9 680.67-14.9L680.67-14.9Q678.67-14.9 677.14-13.48 675.62-12.05 674.54-9.88 673.47-7.7 672.77-5.4L672.77-5.4 672.77-3.7Q672.77-1.85 671.69-0.65 670.62 0.55 669.02 0.55ZM695.82 0.55L695.82 0.55Q695.02 0.55 694.54 0.28 694.07 0 694.22-0.65L694.22-0.65Q694.77-2.8 695.14-5.03 695.52-7.25 695.52-9.3L695.52-9.3Q695.52-11.95 695.19-13.18 694.87-14.4 694.32-14.88 693.77-15.35 692.97-15.6L692.97-15.6Q692.62-15.75 692.34-16 692.07-16.25 692.07-16.7L692.07-16.7Q692.07-17.4 692.62-18.25 693.17-19.1 694.17-19.73 695.17-20.35 696.47-20.35L696.47-20.35Q698.17-20.35 698.84-19.18 699.52-18 699.52-16.1L699.52-16.1Q700.42-18.1 701.74-19.28 703.07-20.45 705.07-20.45L705.07-20.45Q706.42-20.45 707.32-19.85 708.22-19.25 708.22-17.9L708.22-17.9Q708.22-16.55 707.34-15.38 706.47-14.2 705.57-14.2L705.57-14.2Q705.42-14.2 705.22-14.25 705.02-14.3 704.87-14.5L704.87-14.5Q704.22-15.3 703.27-15.3L703.27-15.3Q701.82-15.3 700.72-13.4 699.62-11.5 699.52-8.15L699.52-8.15Q699.57-6.9 699.59-5.6 699.62-4.3 699.62-3.7L699.62-3.7Q699.62-1.85 698.59-0.65 697.57 0.55 695.82 0.55ZM717.91 0.65L717.91 0.65Q714.46 0.65 712.39-1.23 710.31-3.1 710.31-6.75L710.31-6.75Q710.31-8.45 710.79-10.05 711.26-11.65 712.06-13.05L712.06-13.05Q711.26-12.55 710.86-12.55L710.86-12.55Q710.26-12.55 710.04-13.23 709.81-13.9 709.81-14.55L709.81-14.55Q709.81-15.7 710.29-16.38 710.76-17.05 711.21-17.4L711.21-17.4Q712.26-18.3 714.51-19.38 716.76-20.45 719.91-20.45L719.91-20.45Q724.21-20.45 726.59-18.05 728.96-15.65 728.96-11.35L728.96-11.35Q728.96-8 727.56-5.28 726.16-2.55 723.69-0.95 721.21 0.65 717.91 0.65ZM719.46-4.45L719.46-4.45Q721.96-4.45 723.69-6.03 725.41-7.6 725.41-10.2L725.41-10.2Q725.41-12.9 723.66-14.05 721.91-15.2 719.61-15.2L719.61-15.2Q718.56-15.2 717.71-15 716.86-14.8 716.11-14.5L716.11-14.5Q715.41-13.5 714.86-12.25 714.31-11 714.31-9.5L714.31-9.5Q714.31-7 715.81-5.73 717.31-4.45 719.46-4.45ZM739.06 0.65L739.06 0.65Q736.56 0.65 735.19-0.8 733.81-2.25 733.81-5L733.81-5Q733.81-6.95 734.36-9L734.36-9Q734.61-9.85 734.76-10.7 734.91-11.55 734.91-12.4L734.91-12.4Q734.91-14.6 733.56-15.25L733.56-15.25Q732.26-15.95 732.26-16.75L732.26-16.75Q732.26-17.55 732.94-18.35 733.61-19.15 734.61-19.68 735.61-20.2 736.61-20.2L736.61-20.2Q739.46-20.2 739.46-15.55L739.46-15.55Q739.46-14.05 739.24-12.78 739.01-11.5 738.71-10.35L738.71-10.35Q738.51-9.55 738.39-8.75 738.26-7.95 738.26-7.35L738.26-7.35Q738.26-4.85 740.71-4.85L740.71-4.85Q743.01-4.85 745.01-7.3 747.01-9.75 748.31-14.15L748.31-14.15 748.26-15.1Q748.16-17.6 749.14-18.9 750.11-20.2 752.01-20.2L752.01-20.2Q753.66-20.2 753.66-19.15L753.66-19.15Q753.66-18.8 753.54-18.25 753.41-17.7 753.16-16.95L753.16-16.95Q752.66-15.1 752.31-13.03 751.96-10.95 751.96-9.2L751.96-9.2Q751.96-7.25 752.56-5.98 753.16-4.7 754.81-4.25L754.81-4.25Q755.26-4.2 755.54-3.98 755.81-3.75 755.81-3.05L755.81-3.05Q755.81-1.85 754.81-0.7 753.81 0.45 751.91 0.45L751.91 0.45Q748.26 0.45 748.26-4.7L748.26-4.7Q748.26-5.6 748.41-7.4L748.41-7.4 748.31-7.45Q745.16 0.65 739.06 0.65ZM765.16 13.8L765.16 13.8Q761.41 13.8 759.21 12.25 757.01 10.7 757.01 8.25L757.01 8.25Q757.01 6.45 758.13 5.05 759.26 3.65 761.11 3.65L761.11 3.65Q762.16 3.65 762.16 4.25L762.16 4.25Q762.16 4.6 762.03 5.05 761.91 5.5 761.91 5.95L761.91 5.95Q761.91 7.35 763.51 8.03 765.11 8.7 767.36 8.7L767.36 8.7Q768.76 8.7 770.21 8.4 771.66 8.1 772.63 7.48 773.61 6.85 773.61 5.8L773.61 5.8Q773.61 4.65 772.46 4.1 771.31 3.55 769.56 3.28 767.81 3 765.98 2.78 764.16 2.55 762.86 2.05L762.86 2.05Q761.21 1.5 760.41 0.7 759.61-0.1 759.61-1.35L759.61-1.35Q759.61-3.7 762.46-5.1L762.46-5.1Q760.81-5.95 759.98-7.5 759.16-9.05 759.16-10.95L759.16-10.95Q759.16-13.4 760.43-15.55 761.71-17.7 764.23-19.07 766.76-20.45 770.56-20.45L770.56-20.45Q772.26-20.45 774.01-20.13 775.76-19.8 776.93-18.93 778.11-18.05 778.11-16.4L778.11-16.4Q778.11-15.8 777.86-15.08 777.61-14.35 776.91-14.35L776.91-14.35Q776.61-14.35 776.11-14.48 775.61-14.6 775.21-14.7L775.21-14.7Q775.31-14.2 775.38-13.6 775.46-13 775.46-12.35L775.46-12.35Q775.46-9.4 773.46-7.03 771.46-4.65 767.61-4.2L767.61-4.2Q766.21-4.1 765.53-3.88 764.86-3.65 764.86-3.1L764.86-3.1Q764.86-2.6 765.46-2.38 766.06-2.15 767.01-2.05L767.01-2.05Q770.06-1.8 772.41-1.2 774.76-0.6 776.08 0.73 777.41 2.05 777.41 4.5L777.41 4.5Q777.41 7.35 775.73 9.43 774.06 11.5 771.26 12.65 768.46 13.8 765.16 13.8ZM767.06-8.55L767.06-8.55Q769.36-8.55 770.66-9.8 771.96-11.05 771.96-13.05L771.96-13.05Q771.96-13.6 771.86-14.18 771.76-14.75 771.66-15.15L771.66-15.15Q770.86-15.4 770.11-15.48 769.36-15.55 768.66-15.55L768.66-15.55Q766.01-15.55 764.51-14.55 763.01-13.55 763.01-11.8L763.01-11.8Q763.01-10.25 764.11-9.4 765.21-8.55 767.06-8.55ZM782.71 0.55L782.71 0.55Q782.01 0.55 781.51 0.23 781.01-0.1 781.11-0.65L781.11-0.65Q781.86-4.65 782.38-8.78 782.91-12.9 782.91-17.1L782.91-17.1Q782.91-20.8 782.66-23.8 782.41-26.8 781.06-29.55L781.06-29.55Q780.81-30.1 780.66-30.5 780.51-30.9 780.51-31.25L780.51-31.25Q780.51-32.2 781.63-33.1 782.76-34 784.01-34L784.01-34Q785.76-34 786.41-31.8 787.06-29.6 787.06-25.3L787.06-25.3Q787.06-20.15 786.46-16.32 785.86-12.5 785.41-10.5L785.41-10.5 785.61-10.4Q786.61-13.05 788.03-15.35 789.46-17.65 791.36-19.05 793.26-20.45 795.76-20.45L795.76-20.45Q798.41-20.45 799.78-18.85 801.16-17.25 801.16-14.9L801.16-14.9Q801.16-13.9 800.96-12.98 800.76-12.05 800.51-11.2L800.51-11.2Q800.26-10.4 800.06-9.58 799.86-8.75 799.86-7.9L799.86-7.9Q799.86-6.35 800.61-5.38 801.36-4.4 802.61-4L802.61-4Q802.96-3.9 803.13-3.73 803.31-3.55 803.31-3.1L803.31-3.1Q803.31-2.65 803.01-1.8 802.71-0.95 801.91-0.23 801.11 0.5 799.56 0.5L799.56 0.5Q797.56 0.5 796.46-0.93 795.36-2.35 795.36-4.6L795.36-4.6Q795.36-5.7 795.58-6.85 795.81-8 796.11-9.05L796.11-9.05Q796.36-10.1 796.56-11.03 796.76-11.95 796.76-12.6L796.76-12.6Q796.76-14.9 794.36-14.9L794.36-14.9Q792.36-14.9 790.83-13.48 789.31-12.05 788.23-9.88 787.16-7.7 786.46-5.4L786.46-5.4 786.46-3.7Q786.46-1.85 785.38-0.65 784.31 0.55 782.71 0.55ZM829.7 0.65L829.7 0.65Q826.3 0.65 824.45-0.1 822.6-0.85 821.9-2.2 821.2-3.55 821.2-5.4L821.2-5.4Q821.2-6.3 821.35-7.43 821.5-8.55 821.7-10L821.7-10Q822.6-15.5 822.6-19.75L822.6-19.75Q822.6-22.55 822.38-24.53 822.15-26.5 821.05-28.3L821.05-28.3Q820.85-28.6 820.7-28.93 820.55-29.25 820.55-29.45L820.55-29.45Q820.55-30.05 821.25-30.7 821.95-31.35 822.95-31.8 823.95-32.25 824.85-32.25L824.85-32.25Q826.55-32.25 826.98-30.9 827.4-29.55 827.4-27.05L827.4-27.05Q827.4-26.1 827.2-24.03 827-21.95 826.6-18.75L826.6-18.75Q826.2-15.65 826-13.4 825.8-11.15 825.8-9.8L825.8-9.8Q825.8-7.8 826.28-6.78 826.75-5.75 827.85-5.35L827.85-5.35Q828.95-4.95 830.95-4.95L830.95-4.95Q833.1-4.95 835.05-5.33 837-5.7 838.85-6.5L838.85-6.5Q839.1-6.6 839.3-6.65 839.5-6.7 839.65-6.7L839.65-6.7Q840.1-6.7 840.5-6.15 840.9-5.6 840.9-4.6L840.9-4.6Q840.9-2.4 838.5-1.15L838.5-1.15Q835.3 0.65 829.7 0.65ZM850.65 0.65L850.65 0.65Q846.85 0.65 844.72-1.53 842.6-3.7 842.6-7.6L842.6-7.6Q842.6-11.15 844.15-14.05 845.7-16.95 848.32-18.68 850.95-20.4 854.1-20.4L854.1-20.4Q857.1-20.4 858.9-18.93 860.7-17.45 860.7-15L860.7-15Q860.7-13.05 859.5-11.4 858.3-9.75 856.3-8.78 854.3-7.8 851.85-7.8L851.85-7.8Q848.85-7.8 846.95-9.15L846.95-9.15Q847-6.85 848.52-5.45 850.05-4.05 852.45-4.05L852.45-4.05Q853.9-4.05 855.42-4.58 856.95-5.1 858.05-6L858.05-6Q858.75-6.6 859.35-6.6L859.35-6.6Q859.85-6.6 860.17-6.28 860.5-5.95 860.5-5.45L860.5-5.45Q860.5-4.35 858.6-2.55L858.6-2.55Q855.25 0.65 850.65 0.65ZM851.4-11.1L851.4-11.1Q853.2-11.1 854.4-11.85 855.6-12.6 855.6-13.75L855.6-13.75Q855.6-14.7 854.8-15.23 854-15.75 852.6-15.75L852.6-15.75Q850.75-15.75 849.37-14.78 848-13.8 847.4-12.05L847.4-12.05Q848.1-11.6 849.2-11.35 850.3-11.1 851.4-11.1ZM870.75 0.65L870.75 0.65Q867.75 0.65 865.92-1.23 864.1-3.1 864.1-6.6L864.1-6.6Q864.1-9.1 865.07-11.58 866.05-14.05 867.9-16.05 869.75-18.05 872.35-19.25 874.95-20.45 878.2-20.45L878.2-20.45Q881.2-20.45 883.32-19.43 885.45-18.4 885.45-16.65L885.45-16.65Q885.45-16.2 885.35-15.48 885.25-14.75 885.1-14.3L885.1-14.3Q884.95-13.9 884.67-13.58 884.4-13.25 883.95-13.25L883.95-13.25Q883.75-13.25 883.2-13.4L883.2-13.4Q883-12.35 882.9-11.35 882.8-10.35 882.8-9.35L882.8-9.35Q882.8-7.45 883.37-5.98 883.95-4.5 885.65-4.15L885.65-4.15Q886.1-4.05 886.37-3.85 886.65-3.65 886.65-3L886.65-3Q886.65-2.45 886.37-1.6 886.1-0.75 885.32-0.08 884.55 0.6 883.1 0.6L883.1 0.6Q881.15 0.6 880.1-0.83 879.05-2.25 879.05-4.9L879.05-4.9Q877.7-2.45 875.62-0.9 873.55 0.65 870.75 0.65ZM872.35-4.55L872.35-4.55Q874.35-4.55 875.87-5.8 877.4-7.05 878.25-8.95L878.25-8.95Q878.8-10.15 879.1-11.58 879.4-13 879.5-14.4L879.5-14.4Q878.65-14.8 877.55-15.05 876.45-15.3 875.25-15.3L875.25-15.3Q872.2-15.3 870.22-13.5 868.25-11.7 868.25-9L868.25-9Q868.25-7 869.35-5.78 870.45-4.55 872.35-4.55ZM892.74 0.55L892.74 0.55Q891.94 0.55 891.47 0.28 890.99 0 891.14-0.65L891.14-0.65Q891.69-2.8 892.07-5.03 892.44-7.25 892.44-9.3L892.44-9.3Q892.44-11.95 892.12-13.18 891.79-14.4 891.24-14.88 890.69-15.35 889.89-15.6L889.89-15.6Q889.54-15.75 889.27-16 888.99-16.25 888.99-16.7L888.99-16.7Q888.99-17.4 889.54-18.25 890.09-19.1 891.09-19.73 892.09-20.35 893.39-20.35L893.39-20.35Q895.09-20.35 895.77-19.18 896.44-18 896.44-16.1L896.44-16.1Q897.34-18.1 898.67-19.28 899.99-20.45 901.99-20.45L901.99-20.45Q903.34-20.45 904.24-19.85 905.14-19.25 905.14-17.9L905.14-17.9Q905.14-16.55 904.27-15.38 903.39-14.2 902.49-14.2L902.49-14.2Q902.34-14.2 902.14-14.25 901.94-14.3 901.79-14.5L901.79-14.5Q901.14-15.3 900.19-15.3L900.19-15.3Q898.74-15.3 897.64-13.4 896.54-11.5 896.44-8.15L896.44-8.15Q896.49-6.9 896.52-5.6 896.54-4.3 896.54-3.7L896.54-3.7Q896.54-1.85 895.52-0.65 894.49 0.55 892.74 0.55ZM909.99 0.55L909.99 0.55Q908.19 0.55 908.39-0.65L908.39-0.65Q908.94-2.8 909.32-5.03 909.69-7.25 909.69-9.3L909.69-9.3Q909.69-11.95 909.37-13.18 909.04-14.4 908.49-14.88 907.94-15.35 907.14-15.6L907.14-15.6Q906.79-15.75 906.52-16 906.24-16.25 906.24-16.7L906.24-16.7Q906.24-17.4 906.79-18.25 907.34-19.1 908.37-19.73 909.39-20.35 910.69-20.35L910.69-20.35Q912.39-20.35 913.04-19.18 913.69-18 913.69-16.1L913.69-16.1Q913.69-14.85 913.44-13.3 913.19-11.75 912.94-10.5L912.94-10.5 913.09-10.45Q914.09-13.1 915.52-15.38 916.94-17.65 918.84-19.05 920.74-20.45 923.24-20.45L923.24-20.45Q925.89-20.45 927.29-18.85 928.69-17.25 928.69-14.85L928.69-14.85Q928.69-13.85 928.47-12.95 928.24-12.05 927.99-11.2L927.99-11.2Q927.74-10.4 927.57-9.55 927.39-8.7 927.39-7.85L927.39-7.85Q927.39-5 930.09-4L930.09-4Q930.79-3.7 930.79-3.1L930.79-3.1Q930.79-2.65 930.49-1.8 930.19-0.95 929.39-0.23 928.59 0.5 927.04 0.5L927.04 0.5Q925.04 0.5 923.94-0.93 922.84-2.35 922.84-4.55L922.84-4.55Q922.84-5.8 923.12-7.08 923.39-8.35 923.69-9.45L923.69-9.45Q923.89-10.3 924.07-11.13 924.24-11.95 924.24-12.6L924.24-12.6Q924.24-14.9 921.84-14.9L921.84-14.9Q919.79-14.9 918.24-13.38 916.69-11.85 915.59-9.55 914.49-7.25 913.79-4.9L913.79-4.9 913.79-3.7Q913.79-1.85 912.77-0.65 911.74 0.55 909.99 0.55ZM938.19-24.85L938.19-24.85Q936.79-24.9 935.94-25.7 935.09-26.5 935.09-27.95L935.09-27.95Q935.14-29.5 936.14-30.48 937.14-31.45 938.69-31.4L938.69-31.4Q940.14-31.35 940.96-30.55 941.79-29.75 941.74-28.3L941.74-28.3Q941.69-26.8 940.74-25.83 939.79-24.85 938.19-24.85ZM938.24 0.5L938.24 0.5Q936.74 0.5 935.89-0.33 935.04-1.15 935.04-3.15L935.04-3.15Q935.04-4.3 935.26-5.4 935.49-6.5 935.79-7.55L935.79-7.55Q936.14-8.65 936.36-9.8 936.59-10.95 936.59-12.25L936.59-12.25Q936.59-13.15 936.34-13.98 936.09-14.8 935.24-15.2L935.24-15.2Q934.59-15.55 934.11-15.93 933.64-16.3 933.64-16.9L933.64-16.9Q933.64-17.6 934.29-18.4 934.94-19.2 936.01-19.78 937.09-20.35 938.24-20.35L938.24-20.35Q939.49-20.35 940.06-19.7 940.64-19.05 940.84-18.05 941.04-17.05 941.04-16L941.04-16Q941.04-14.4 940.79-12.88 940.54-11.35 940.29-10.05L940.29-10.05Q940.09-9.1 939.99-8.3 939.89-7.5 939.89-6.8L939.89-6.8Q939.89-5.55 940.49-4.93 941.09-4.3 942.19-3.75L942.19-3.75Q942.64-3.5 942.64-3L942.64-3Q942.64-2.6 942.24-1.75 941.84-0.9 940.86-0.2 939.89 0.5 938.24 0.5ZM949.19 0.55L949.19 0.55Q947.39 0.55 947.59-0.65L947.59-0.65Q948.14-2.8 948.51-5.03 948.89-7.25 948.89-9.3L948.89-9.3Q948.89-11.95 948.56-13.18 948.24-14.4 947.69-14.88 947.14-15.35 946.34-15.6L946.34-15.6Q945.99-15.75 945.71-16 945.44-16.25 945.44-16.7L945.44-16.7Q945.44-17.4 945.99-18.25 946.54-19.1 947.56-19.73 948.59-20.35 949.89-20.35L949.89-20.35Q951.59-20.35 952.24-19.18 952.89-18 952.89-16.1L952.89-16.1Q952.89-14.85 952.64-13.3 952.39-11.75 952.14-10.5L952.14-10.5 952.29-10.45Q953.29-13.1 954.71-15.38 956.14-17.65 958.04-19.05 959.94-20.45 962.44-20.45L962.44-20.45Q965.09-20.45 966.49-18.85 967.89-17.25 967.89-14.85L967.89-14.85Q967.89-13.85 967.66-12.95 967.44-12.05 967.19-11.2L967.19-11.2Q966.94-10.4 966.76-9.55 966.59-8.7 966.59-7.85L966.59-7.85Q966.59-5 969.29-4L969.29-4Q969.99-3.7 969.99-3.1L969.99-3.1Q969.99-2.65 969.69-1.8 969.39-0.95 968.59-0.23 967.79 0.5 966.24 0.5L966.24 0.5Q964.24 0.5 963.14-0.93 962.04-2.35 962.04-4.55L962.04-4.55Q962.04-5.8 962.31-7.08 962.59-8.35 962.89-9.45L962.89-9.45Q963.09-10.3 963.26-11.13 963.44-11.95 963.44-12.6L963.44-12.6Q963.44-14.9 961.04-14.9L961.04-14.9Q958.99-14.9 957.44-13.38 955.89-11.85 954.79-9.55 953.69-7.25 952.99-4.9L952.99-4.9 952.99-3.7Q952.99-1.85 951.96-0.65 950.94 0.55 949.19 0.55ZM979.68 13.8L979.68 13.8Q975.93 13.8 973.73 12.25 971.53 10.7 971.53 8.25L971.53 8.25Q971.53 6.45 972.66 5.05 973.78 3.65 975.63 3.65L975.63 3.65Q976.68 3.65 976.68 4.25L976.68 4.25Q976.68 4.6 976.56 5.05 976.43 5.5 976.43 5.95L976.43 5.95Q976.43 7.35 978.03 8.03 979.63 8.7 981.88 8.7L981.88 8.7Q983.28 8.7 984.73 8.4 986.18 8.1 987.16 7.48 988.13 6.85 988.13 5.8L988.13 5.8Q988.13 4.65 986.98 4.1 985.83 3.55 984.08 3.28 982.33 3 980.51 2.78 978.68 2.55 977.38 2.05L977.38 2.05Q975.73 1.5 974.93 0.7 974.13-0.1 974.13-1.35L974.13-1.35Q974.13-3.7 976.98-5.1L976.98-5.1Q975.33-5.95 974.51-7.5 973.68-9.05 973.68-10.95L973.68-10.95Q973.68-13.4 974.96-15.55 976.23-17.7 978.76-19.07 981.28-20.45 985.08-20.45L985.08-20.45Q986.78-20.45 988.53-20.13 990.28-19.8 991.46-18.93 992.63-18.05 992.63-16.4L992.63-16.4Q992.63-15.8 992.38-15.08 992.13-14.35 991.43-14.35L991.43-14.35Q991.13-14.35 990.63-14.48 990.13-14.6 989.73-14.7L989.73-14.7Q989.83-14.2 989.91-13.6 989.98-13 989.98-12.35L989.98-12.35Q989.98-9.4 987.98-7.03 985.98-4.65 982.13-4.2L982.13-4.2Q980.73-4.1 980.06-3.88 979.38-3.65 979.38-3.1L979.38-3.1Q979.38-2.6 979.98-2.38 980.58-2.15 981.53-2.05L981.53-2.05Q984.58-1.8 986.93-1.2 989.28-0.6 990.61 0.73 991.93 2.05 991.93 4.5L991.93 4.5Q991.93 7.35 990.26 9.43 988.58 11.5 985.78 12.65 982.98 13.8 979.68 13.8ZM981.58-8.55L981.58-8.55Q983.88-8.55 985.18-9.8 986.48-11.05 986.48-13.05L986.48-13.05Q986.48-13.6 986.38-14.18 986.28-14.75 986.18-15.15L986.18-15.15Q985.38-15.4 984.63-15.48 983.88-15.55 983.18-15.55L983.18-15.55Q980.53-15.55 979.03-14.55 977.53-13.55 977.53-11.8L977.53-11.8Q977.53-10.25 978.63-9.4 979.73-8.55 981.58-8.55Z" opacity="1" transform="matrix(1,0,0,1,0,0)" fill="#2257bf" class="slogan-text-1" data-fill-palette-color="secondary" id="text-1"></path></svg></g></svg></g></svg></g></svg></g><g transform="matrix(1,0,0,1,81.73906650345101,0)"><svg viewBox="0 0 80.95322699309796 75.48201568764915" height="75.48201568764915" width="80.95322699309796"><g><svg xmlns="http://www.w3.org/2000/svg" xmlns:xlink="http://www.w3.org/1999/xlink" version="1.1" x="8" y="0" viewBox="7.6 2.9975000000000005 56.80458924977362 66.0125" style="enable-background:new 0 0 72 72;" xml:space="preserve" height="75.48201568764915" width="64.95322699309796" class="icon-icon-0" data-fill-palette-color="accent" id="icon-0"><path d="M55.31 14.15c0-0.58-0.1-1.16-0.19-1.74-0.1-0.48 0.19-0.77 0.29-0.77l1.45-1.26c-0.48-1.26-1.16-2.41-2.03-3.48l-1.74 0.68c-0.29 0.1-0.58 0.1-0.87-0.19-0.1-0.1-1.64-1.26-2.99-1.64-0.29-0.1-0.48-0.39-0.58-0.68l-0.29-1.93c-1.35-0.19-2.7-0.19-3.96 0l-0.39 1.93c0 0.29-0.29 0.58-0.58 0.68-1.35 0.39-2.8 1.55-2.99 1.64-0.19 0.29-0.48 0.29-0.77 0.19l-1.84-0.68c-0.87 1.06-1.55 2.22-1.93 3.48l1.45 1.26c0 0 0.39 0.29 0.19 0.77-0.19 1.16-0.19 2.32 0 3.48 0.19 0.48-0.19 0.77-0.19 0.77l-1.45 1.26c0.39 1.26 1.06 2.41 1.93 3.48l1.84-0.68c0.29-0.1 0.58 0 0.77 0.19 0.19 0.1 1.64 1.35 2.99 1.74 0.29 0.1 0.58 0.29 0.58 0.58l0.39 1.93c1.26 0.19 2.61 0.19 3.96 0l0.29-1.93c0.1-0.29 0.29-0.48 0.58-0.58 1.35-0.39 2.9-1.64 2.99-1.74 0.29-0.19 0.58-0.29 0.87-0.19l1.74 0.68c0.87-1.06 1.55-2.22 2.03-3.48l-1.45-1.26c-0.1 0-0.39-0.29-0.29-0.77C55.22 15.31 55.31 14.73 55.31 14.15L55.31 14.15zM51.93 14.15c0 3.09-2.51 5.6-5.6 5.6-3.09 0-5.51-2.51-5.51-5.6 0-3.09 2.41-5.6 5.51-5.6C49.42 8.55 51.93 11.06 51.93 14.15L51.93 14.15zM50.19 14.15c0-2.12-1.74-3.86-3.86-3.86-2.12 0-3.86 1.74-3.86 3.86 0 2.12 1.74 3.86 3.86 3.86C48.46 18.01 50.19 16.27 50.19 14.15L50.19 14.15zM41.89 56.84c3.09-0.19 6.37-0.48 9.27-0.77 1.93-1.16 3.86-2.41 5.79-3.57 1.06-0.68 1.74-1.84 0.48-2.7-0.58-0.39-1.55-0.48-2.51 0C50.48 51.91 46.23 54.52 41.89 56.84L41.89 56.84zM14.85 66.69c7.15 0.19 14.49-0.48 21.54-1.35 8.6-1.35 17.19-2.7 25.69-4.06 1.16 0 2.41-0.87 2.32-2.12-0.29-1.55-1.93-2.22-3.38-2.12-7.82 0.29-15.55 1.64-23.47 1.64 0-0.19-6.76 0.77-6.86-3.67-0.1-3.28 3.48-6.95 4.93-9.85 0.58-1.35 0.58-3.38-0.58-4.44-0.87-0.77-1.74-0.29-2.51 0.48-3.86 3.86-7.92 7.53-11.69 11.49-1.45 1.45-3.86 2.41-5.99 2.51V66.69zM10.4 53.75c0.48 0 0.77 0.39 0.77 0.87 0 0.48-0.29 0.87-0.77 0.87-0.48 0-0.87-0.39-0.87-0.87C9.53 54.13 9.92 53.75 10.4 53.75L10.4 53.75zM7.6 52.68v15.94c0 0.19 0.1 0.39 0.29 0.39h4.93c0.19 0 0.39-0.19 0.39-0.39V52.68c0-0.19-0.19-0.39-0.39-0.39H7.89C7.7 52.3 7.6 52.49 7.6 52.68L7.6 52.68zM55.6 37.04h-8.4V26.99h-1.74v10.04l-8.4-0.1v2.9l18.54 0.1V37.04zM39.18 41.58c0.19 2.12 0.48 4.25 0.68 6.37 0.19 0.87 0.68 1.55 1.64 1.64h9.66c0.87-0.1 1.45-0.77 1.64-1.64 0.19-2.12 0.39-4.25 0.68-6.28L39.18 41.58zM47.78 32.6l5.79-2.22c1.06-0.39 1.64 1.16 0.58 1.55l-5.79 2.22c1.93 0.77 4.06 0.97 6.08 0.19 2.32-0.97 3.86-2.99 4.64-5.31-2.22-1.16-4.73-1.55-7.05-0.68C50.1 29.22 48.65 30.76 47.78 32.6L47.78 32.6zM44.3 34.14l-5.79-2.22c-1.06-0.39-0.48-1.93 0.58-1.55l5.79 2.22c-0.87-1.83-2.22-3.38-4.25-4.25-2.32-0.87-4.83-0.48-6.95 0.68 0.77 2.32 2.32 4.35 4.64 5.31C40.25 35.11 42.37 34.91 44.3 34.14L44.3 34.14z" fill="#2257bf" data-fill-palette-color="accent"></path></svg></g></svg></g><g><rect width="81.73906650345101" height="3.1242791190128463" y="71.35773656863631" x="162.69229349654898" fill="#2257bf" data-fill-palette-color="accent"></rect><rect width="81.73906650345101" height="3.1242791190128463" y="71.35773656863631" x="0" fill="#2257bf" data-fill-palette-color="accent"></rect><rect width="81.73906650345101" height="3.1242791190128463" y="65.10917833061062" x="162.69229349654898" fill="#2257bf" data-fill-palette-color="accent"></rect><rect width="81.73906650345101" height="3.1242791190128463" y="65.10917833061062" x="0" fill="#2257bf" data-fill-palette-color="accent"></rect></g></svg></g></svg></g><g><path d="M103.11 46.282A122.216 122.216 0 0 1 292.41 46.282L289.286 46.282A119.091 119.091 0 0 0 106.234 46.282L103.11 46.282M103.11 200.918A122.216 122.216 0 0 0 292.41 200.918L289.286 200.918A119.091 119.091 0 0 1 106.234 200.918L103.11 200.918" fill="#2257bf" stroke="transparent" data-fill-palette-color="tertiary"></path></g></svg></g><defs></defs></svg><rect width="395.52" height="247.2" fill="none" stroke="none" visibility="hidden"></rect></g></svg></g></svg>