<svg xmlns="http://www.w3.org/2000/svg" version="1.1" xmlns:xlink="http://www.w3.org/1999/xlink" xmlns:svgjs="http://svgjs.dev/svgjs" width="2000" height="742" viewBox="0 0 2000 742">
  <g transform="matrix(1,0,0,1,-1.2121212121212466,-0.5880624163926882)"><svg viewBox="0 0 396 147" data-background-color="#ffffff" preserveAspectRatio="xMidYMid meet" height="742" width="2000" xmlns="http://www.w3.org/2000/svg" xmlns:xlink="http://www.w3.org/1999/xlink">
      <g id="tight-bounds" transform="matrix(1,0,0,1,0.2400000000000091,0.11650293154949054)"><svg viewBox="0 0 395.52 146.76699413690102" height="146.76699413690102" width="395.52">
          <g><svg viewBox="0 0 395.52 146.76699413690102" height="146.76699413690102" width="395.52">
              <g><svg viewBox="0 0 395.52 146.76699413690102" height="146.76699413690102" width="395.52">
                  <g transform="matrix(1,0,0,1,0,90.707890376391)"><svg viewBox="0 0 395.52 56.05910376051002" height="56.05910376051002" width="395.52">
                      <g id="textblocktransform"><svg viewBox="0 0 395.52 56.05910376051002" height="56.05910376051002" width="395.52" id="textblock">
                          <g><svg viewBox="0 0 395.52 56.05910376051002" height="56.05910376051002" width="395.52">
                              <g transform="matrix(1,0,0,1,0,0)"><svg width="395.52" viewBox="0.81 -36.84 264.2 37.45" height="56.05910376051002" data-palette-color="#2257bf">
                                  <path d="M29.15-33.54L29.15-25.56 26.2-25.56 25.49-30.25Q25.32-31.1 24.66-31.1L24.66-31.1 17.5-31.1 17.5-3.44Q17.5-3.08 17.76-2.73 18.02-2.39 18.55-2.34L18.55-2.34 21.75-2.15 21.75 0 8.2 0 8.2-2.15 11.4-2.34Q11.94-2.39 12.19-2.73 12.45-3.08 12.45-3.44L12.45-3.44 12.45-31.1 5.25-31.1Q4.52-31.1 4.39-30.25L4.39-30.25 3.71-25.56 0.81-25.56 0.81-33.54 29.15-33.54ZM57.49-1.95L57.49 0 46.36 0 46.36-1.95 48.41-2.1Q48.85-2.15 49.18-2.44 49.51-2.73 49.51-3.2L49.51-3.2 49.51-16.09Q49.51-18.24 48.48-19.64 47.46-21.04 44.55-21.04L44.55-21.04Q43.23-21.04 41.71-20.63 40.18-20.21 39.11-19.6L39.11-19.6 39.11-3.2Q39.11-2.17 40.11-2.1L40.11-2.1 42.26-1.95 42.26 0 31 0 31-1.95 33.4-2.1Q34.45-2.17 34.45-3.2L34.45-3.2 34.45-33.25 30.71-33.25 30.71-34.91 37.11-36.84 39.11-36.84 39.11-21.61Q40.01-22.17 41.45-22.89 42.89-23.61 44.48-24.16 46.07-24.71 47.36-24.71L47.36-24.71Q50.24-24.71 52.19-22.85 54.15-21 54.15-17.14L54.15-17.14 54.15-3.2Q54.15-2.73 54.48-2.44 54.81-2.15 55.25-2.1L55.25-2.1 57.49-1.95ZM77.7-23.95L77.7-18.99 75.75-18.99Q75.29-19.56 74.64-19.96 73.99-20.36 73.07-20.36L73.07-20.36Q71.87-20.36 70.61-19.53 69.36-18.7 68.06-17.26L68.06-17.26 68.06-3.2Q68.06-2.15 69.11-2.1L69.11-2.1 72.41-1.95 72.41 0 59.91 0 59.91-1.9 62.37-2.1Q62.81-2.15 63.12-2.44 63.42-2.73 63.42-3.2L63.42-3.2 63.42-20.56 59.81-20.56 59.81-22.19 66.01-24.1 68.06-24.1 68.06-19.65Q68.79-20.46 69.89-21.66 70.99-22.85 72.24-23.78 73.48-24.71 74.65-24.71L74.65-24.71Q75.43-24.71 76.34-24.46 77.24-24.22 77.7-23.95L77.7-23.95ZM89.1-32.35L89.1-32.35Q89.1-31.08 88.22-30.16 87.35-29.25 86.08-29.25L86.08-29.25Q84.81-29.25 83.89-30.16 82.98-31.08 82.98-32.35L82.98-32.35Q82.98-33.64 83.89-34.52 84.81-35.4 86.08-35.4L86.08-35.4Q87.35-35.4 88.22-34.52 89.1-33.64 89.1-32.35ZM91.67-1.95L91.67 0 79.92 0 79.92-1.95 82.37-2.1Q83.42-2.17 83.42-3.2L83.42-3.2 83.42-21.04 79.97-21.04 79.97-22.8 86.08-24.71 88.05-24.71 88.05-3.2Q88.05-2.73 88.36-2.44 88.66-2.15 89.1-2.1L89.1-2.1 91.67-1.95ZM119.33-24.1L119.33-22.14 116.66-21.85 107.92 0 104.68 0 96.62-21.85 93.86-22.14 93.86-24.1 104.92-24.1 104.92-22.14 102.53-22Q101.72-21.92 101.72-21.19L101.72-21.19Q101.72-21.09 101.77-20.9L101.77-20.9 107.36-5.25 113.52-20.9Q113.59-21.04 113.59-21.22L113.59-21.22Q113.59-21.95 112.83-22L112.83-22 110.59-22.14 110.59-24.1 119.33-24.1ZM142.61-5.54L142.61-2.49Q140.51-1.2 138.09-0.29 135.66 0.61 133.12 0.61L133.12 0.61Q130.09 0.61 127.44-0.74 124.79-2.1 123.16-4.86 121.52-7.62 121.52-11.79L121.52-11.79Q121.52-15.7 123.03-18.6 124.55-21.51 127.21-23.11 129.87-24.71 133.26-24.71L133.26-24.71Q137.93-24.71 140.27-21.81 142.61-18.92 142.61-14.45L142.61-14.45Q142.61-14.21 142.61-13.81 142.61-13.4 142.57-13.06L142.57-13.06 126.35-13.06Q126.35-11.16 126.76-9.27 127.16-7.37 128.11-5.83 129.06-4.3 130.68-3.37 132.29-2.44 134.7-2.44L134.7-2.44Q136.85-2.44 138.89-3.43 140.93-4.42 142.61-5.54L142.61-5.54ZM126.62-15.31L137.61-15.31 137.61-16.41Q137.61-18.87 136.43-20.56 135.24-22.24 132.75-22.24L132.75-22.24Q130.29-22.24 128.55-20.39 126.82-18.53 126.62-15.31L126.62-15.31ZM192.39-33.54L192.39-25.61 189.44-25.61 188.73-30.2Q188.65-30.57 188.43-30.83 188.21-31.1 187.87-31.1L187.87-31.1 177.23-31.1 177.23-18.09 184.87-18.09Q185.21-18.09 185.48-18.42 185.75-18.75 185.77-18.99L185.77-18.99 186.24-22.51 188.73-22.51 188.73-11.25 186.24-11.25 185.77-14.75Q185.75-15.01 185.47-15.33 185.19-15.65 184.87-15.65L184.87-15.65 177.23-15.65 177.23-3.44Q177.23-3.08 177.48-2.73 177.74-2.39 178.28-2.34L178.28-2.34 181.62-2.15 181.62 0 168.49 0 168.49-2.15 171.13-2.34Q171.66-2.39 171.92-2.73 172.17-3.08 172.17-3.44L172.17-3.44 172.17-30.1Q172.17-30.47 171.92-30.82 171.66-31.18 171.13-31.2L171.13-31.2 168.07-31.4 168.07-33.54 192.39-33.54ZM221.27-1.95L221.27 0 213.33 0 213.33-2.86Q212.48-2.2 211.16-1.39 209.84-0.59 208.33 0.01 206.82 0.61 205.33 0.61L205.33 0.61Q202.1 0.61 200.26-1.33 198.42-3.27 198.42-7.5L198.42-7.5 198.42-21.04 194.93-21.04 194.93-22.75 201.08-24.71 203.08-24.71 203.08-8.45Q203.08-5.79 204.17-4.3 205.25-2.81 207.91-2.81L207.91-2.81Q209.45-2.81 210.94-3.33 212.43-3.86 213.33-4.3L213.33-4.3 213.33-21.04 209.82-21.04 209.82-22.75 215.92-24.71 217.97-24.71 217.97-3.2Q217.97-2.73 218.3-2.44 218.63-2.15 219.07-2.1L219.07-2.1 221.27-1.95ZM240.5-7.25L240.5-7.25Q240.5-3.56 237.97-1.48 235.43 0.61 230.96 0.61L230.96 0.61Q228.66 0.61 226.72 0.13 224.78-0.34 224.03-0.66L224.03-0.66 224.03-7.3 226.56-7.3 227.17-3.05Q227.93-2.56 229.04-2.11 230.15-1.66 231.62-1.66L231.62-1.66Q233.77-1.66 234.94-2.86 236.11-4.05 236.11-5.54L236.11-5.54Q236.11-7.52 234.69-8.53 233.28-9.55 230.67-10.79L230.67-10.79 230.01-11.11Q227.27-12.4 225.82-13.81 224.37-15.21 224.37-17.46L224.37-17.46Q224.37-20.8 226.71-22.75 229.05-24.71 233.38-24.71L233.38-24.71Q235.57-24.71 237.29-24.3 239.02-23.9 239.77-23.56L239.77-23.56 239.77-17.65 237.16-17.65 236.77-21.14Q236.23-21.56 235.18-21.92 234.13-22.29 232.96-22.29L232.96-22.29Q230.91-22.29 229.91-21.35 228.91-20.41 228.91-18.95L228.91-18.95Q228.91-17.26 230.12-16.27 231.33-15.28 234.5-13.84L234.5-13.84Q237.11-12.65 238.81-11.17 240.5-9.69 240.5-7.25ZM265.01-5.54L265.01-2.49Q262.91-1.2 260.49-0.29 258.06 0.61 255.52 0.61L255.52 0.61Q252.49 0.61 249.84-0.74 247.19-2.1 245.56-4.86 243.92-7.62 243.92-11.79L243.92-11.79Q243.92-15.7 245.43-18.6 246.95-21.51 249.61-23.11 252.27-24.71 255.66-24.71L255.66-24.71Q260.33-24.71 262.67-21.81 265.01-18.92 265.01-14.45L265.01-14.45Q265.01-14.21 265.01-13.81 265.01-13.4 264.97-13.06L264.97-13.06 248.75-13.06Q248.75-11.16 249.16-9.27 249.56-7.37 250.51-5.83 251.46-4.3 253.08-3.37 254.69-2.44 257.1-2.44L257.1-2.44Q259.25-2.44 261.29-3.43 263.33-4.42 265.01-5.54L265.01-5.54ZM249.02-15.31L260.01-15.31 260.01-16.41Q260.01-18.87 258.83-20.56 257.64-22.24 255.15-22.24L255.15-22.24Q252.68-22.24 250.95-20.39 249.22-18.53 249.02-15.31L249.02-15.31Z" opacity="1" transform="matrix(1,0,0,1,0,0)" fill="#ffffff" class="wordmark-text-0" data-fill-palette-color="primary" id="text-0"></path>
                                </svg></g>
                            </svg></g>
                        </svg></g>
                    </svg></g>
                  <g transform="matrix(1,0,0,1,156.4264597657578,0)"><svg viewBox="0 0 82.66708046848436 77.47368139702485" height="77.47368139702485" width="82.66708046848436">
                      <g><svg xmlns="http://www.w3.org/2000/svg" xmlns:xlink="http://www.w3.org/1999/xlink" version="1.1" x="8" y="0" viewBox="7.6 2.9975000000000005 56.80458924977362 66.0125" style="enable-background:new 0 0 72 72;" xml:space="preserve" height="77.47368139702485" width="66.66708046848436" class="icon-icon-0" data-fill-palette-color="accent" id="icon-0">
                          <path d="M55.31 14.15c0-0.58-0.1-1.16-0.19-1.74-0.1-0.48 0.19-0.77 0.29-0.77l1.45-1.26c-0.48-1.26-1.16-2.41-2.03-3.48l-1.74 0.68c-0.29 0.1-0.58 0.1-0.87-0.19-0.1-0.1-1.64-1.26-2.99-1.64-0.29-0.1-0.48-0.39-0.58-0.68l-0.29-1.93c-1.35-0.19-2.7-0.19-3.96 0l-0.39 1.93c0 0.29-0.29 0.58-0.58 0.68-1.35 0.39-2.8 1.55-2.99 1.64-0.19 0.29-0.48 0.29-0.77 0.19l-1.84-0.68c-0.87 1.06-1.55 2.22-1.93 3.48l1.45 1.26c0 0 0.39 0.29 0.19 0.77-0.19 1.16-0.19 2.32 0 3.48 0.19 0.48-0.19 0.77-0.19 0.77l-1.45 1.26c0.39 1.26 1.06 2.41 1.93 3.48l1.84-0.68c0.29-0.1 0.58 0 0.77 0.19 0.19 0.1 1.64 1.35 2.99 1.74 0.29 0.1 0.58 0.29 0.58 0.58l0.39 1.93c1.26 0.19 2.61 0.19 3.96 0l0.29-1.93c0.1-0.29 0.29-0.48 0.58-0.58 1.35-0.39 2.9-1.64 2.99-1.74 0.29-0.19 0.58-0.29 0.87-0.19l1.74 0.68c0.87-1.06 1.55-2.22 2.03-3.48l-1.45-1.26c-0.1 0-0.39-0.29-0.29-0.77C55.22 15.31 55.31 14.73 55.31 14.15L55.31 14.15zM51.93 14.15c0 3.09-2.51 5.6-5.6 5.6-3.09 0-5.51-2.51-5.51-5.6 0-3.09 2.41-5.6 5.51-5.6C49.42 8.55 51.93 11.06 51.93 14.15L51.93 14.15zM50.19 14.15c0-2.12-1.74-3.86-3.86-3.86-2.12 0-3.86 1.74-3.86 3.86 0 2.12 1.74 3.86 3.86 3.86C48.46 18.01 50.19 16.27 50.19 14.15L50.19 14.15zM41.89 56.84c3.09-0.19 6.37-0.48 9.27-0.77 1.93-1.16 3.86-2.41 5.79-3.57 1.06-0.68 1.74-1.84 0.48-2.7-0.58-0.39-1.55-0.48-2.51 0C50.48 51.91 46.23 54.52 41.89 56.84L41.89 56.84zM14.85 66.69c7.15 0.19 14.49-0.48 21.54-1.35 8.6-1.35 17.19-2.7 25.69-4.06 1.16 0 2.41-0.87 2.32-2.12-0.29-1.55-1.93-2.22-3.38-2.12-7.82 0.29-15.55 1.64-23.47 1.64 0-0.19-6.76 0.77-6.86-3.67-0.1-3.28 3.48-6.95 4.93-9.85 0.58-1.35 0.58-3.38-0.58-4.44-0.87-0.77-1.74-0.29-2.51 0.48-3.86 3.86-7.92 7.53-11.69 11.49-1.45 1.45-3.86 2.41-5.99 2.51V66.69zM10.4 53.75c0.48 0 0.77 0.39 0.77 0.87 0 0.48-0.29 0.87-0.77 0.87-0.48 0-0.87-0.39-0.87-0.87C9.53 54.13 9.92 53.75 10.4 53.75L10.4 53.75zM7.6 52.68v15.94c0 0.19 0.1 0.39 0.29 0.39h4.93c0.19 0 0.39-0.19 0.39-0.39V52.68c0-0.19-0.19-0.39-0.39-0.39H7.89C7.7 52.3 7.6 52.49 7.6 52.68L7.6 52.68zM55.6 37.04h-8.4V26.99h-1.74v10.04l-8.4-0.1v2.9l18.54 0.1V37.04zM39.18 41.58c0.19 2.12 0.48 4.25 0.68 6.37 0.19 0.87 0.68 1.55 1.64 1.64h9.66c0.87-0.1 1.45-0.77 1.64-1.64 0.19-2.12 0.39-4.25 0.68-6.28L39.18 41.58zM47.78 32.6l5.79-2.22c1.06-0.39 1.64 1.16 0.58 1.55l-5.79 2.22c1.93 0.77 4.06 0.97 6.08 0.19 2.32-0.97 3.86-2.99 4.64-5.31-2.22-1.16-4.73-1.55-7.05-0.68C50.1 29.22 48.65 30.76 47.78 32.6L47.78 32.6zM44.3 34.14l-5.79-2.22c-1.06-0.39-0.48-1.93 0.58-1.55l5.79 2.22c-0.87-1.83-2.22-3.38-4.25-4.25-2.32-0.87-4.83-0.48-6.95 0.68 0.77 2.32 2.32 4.35 4.64 5.31C40.25 35.11 42.37 34.91 44.3 34.14L44.3 34.14z" fill="#ffffff" data-fill-palette-color="accent"></path>
                        </svg></g>
                    </svg></g>
                  <g>
                    <rect width="156.4264597657578" height="5.055467830117875" y="71.41821356690697" x="239.09354023424217" fill="#ffffff" data-fill-palette-color="accent"></rect>
                    <rect width="156.4264597657578" height="5.055467830117875" y="71.41821356690697" x="0" fill="#ffffff" data-fill-palette-color="accent"></rect>
                    <rect width="156.4264597657578" height="5.055467830117875" y="61.307277906671224" x="239.09354023424217" fill="#ffffff" data-fill-palette-color="accent"></rect>
                    <rect width="156.4264597657578" height="5.055467830117875" y="61.307277906671224" x="0" fill="#ffffff" data-fill-palette-color="accent"></rect>
                  </g>
                </svg></g>
            </svg></g>
          <defs></defs>
        </svg>
        <rect width="395.52" height="146.76699413690102" fill="none" stroke="none" visibility="hidden"></rect>
      </g>
    </svg></g>
</svg>